<svg version="1.1" xmlns="http://www.w3.org/2000/svg" xmlns:xlink="http://www.w3.org/1999/xlink" width="1316" height="949"><defs/><g><g transform="translate(-102,-22) scale(1,1)"><rect fill="#C0C0C0" stroke="none" x="471" y="327" width="152" height="160" opacity="0.2"/></g><g transform="translate(-102,-22) scale(1,1)"><rect fill="#ffffff" stroke="none" x="464" y="320" width="152" height="160"/></g><g transform="translate(-102,-22) scale(1,1)"><path fill="none" stroke="#000000" d="M 464 320 L 616 320 L 616 480 L 464 480 L 464 320 Z Z" stroke-miterlimit="10"/></g><g transform="translate(-102,-22) scale(1,1)"><path fill="none" stroke="#000000" d="M 464 345 L 616 345" stroke-miterlimit="10"/></g><g transform="translate(-102,-22) scale(1,1)"><path fill="none" stroke="#000000" d="M 464 428 L 616 428" stroke-miterlimit="10"/></g><g transform="translate(-102,-22) scale(1,1)"><g><path fill="none" stroke="none"/><text fill="#000000" stroke="none" font-family="Arial" font-size="13px" font-style="normal" font-weight="bold" text-decoration="none" x="516.510498046875" y="339.5">Jugador</text></g></g><g transform="translate(-102,-22) scale(1,1)"><g><path fill="none" stroke="none"/><text fill="#000000" stroke="none" font-family="Arial" font-size="13px" font-style="normal" font-weight="normal" text-decoration="none" x="469" y="362.5">-ID {id, unique}</text></g></g><g transform="translate(-102,-22) scale(1,1)"><g><path fill="none" stroke="none"/><text fill="#000000" stroke="none" font-family="Arial" font-size="13px" font-style="normal" font-weight="normal" text-decoration="none" x="469" y="377.5">-nombre: String</text></g></g><g transform="translate(-102,-22) scale(1,1)"><g><path fill="none" stroke="none"/><text fill="#000000" stroke="none" font-family="Arial" font-size="13px" font-style="normal" font-weight="normal" text-decoration="none" x="469" y="392.5">-saldo: Int = 0</text></g></g><g transform="translate(-102,-22) scale(1,1)"><g><path fill="none" stroke="none"/><text fill="#000000" stroke="none" font-family="Arial" font-size="13px" font-style="normal" font-weight="normal" text-decoration="none" x="469" y="407.5">-totalApostodo: Int = 0</text></g></g><g transform="translate(-102,-22) scale(1,1)"><g><path fill="none" stroke="none"/><text fill="#000000" stroke="none" font-family="Arial" font-size="13px" font-style="normal" font-weight="normal" text-decoration="none" x="469" y="422.5">-historial: Pila</text></g></g><g transform="translate(-102,-22) scale(1,1)"><rect fill="#C0C0C0" stroke="none" x="519" y="567" width="113.4189453125" height="128" opacity="0.2"/></g><g transform="translate(-102,-22) scale(1,1)"><rect fill="#ffffff" stroke="none" x="512" y="560" width="113.4189453125" height="128"/></g><g transform="translate(-102,-22) scale(1,1)"><path fill="none" stroke="#000000" d="M 512 560 L 625.4189453125 560 L 625.4189453125 688 L 512 688 L 512 560 Z Z" stroke-miterlimit="10"/></g><g transform="translate(-102,-22) scale(1,1)"><path fill="none" stroke="#000000" d="M 512 585 L 625.4189453125 585" stroke-miterlimit="10"/></g><g transform="translate(-102,-22) scale(1,1)"><path fill="none" stroke="#000000" d="M 512 623 L 625.4189453125 623" stroke-miterlimit="10"/></g><g transform="translate(-102,-22) scale(1,1)"><g><path fill="none" stroke="none"/><text fill="#000000" stroke="none" font-family="Arial" font-size="13px" font-style="normal" font-weight="bold" text-decoration="none" x="552.81494140625" y="579.5">Mazo</text></g></g><g transform="translate(-102,-22) scale(1,1)"><g><path fill="none" stroke="none"/><text fill="#000000" stroke="none" font-family="Arial" font-size="13px" font-style="normal" font-weight="normal" text-decoration="none" x="517" y="602.5">-baraja: Carta</text></g></g><g transform="translate(-102,-22) scale(1,1)"><g><path fill="none" stroke="none"/><text fill="#000000" stroke="none" font-family="Arial" font-size="13px" font-style="normal" font-weight="normal" text-decoration="none" x="517" y="617.5">-tamanoMazo: Int</text></g></g><g transform="translate(-102,-22) scale(1,1)"><g><path fill="none" stroke="none"/><text fill="#000000" stroke="none" font-family="Arial" font-size="13px" font-style="normal" font-weight="normal" text-decoration="none" x="517" y="640.5">+barajear()</text></g></g><g transform="translate(-102,-22) scale(1,1)"><g><path fill="none" stroke="none"/><text fill="#000000" stroke="none" font-family="Arial" font-size="13px" font-style="normal" font-weight="normal" text-decoration="none" x="517" y="655.5">+sacarCarta()</text></g></g><g transform="translate(-102,-22) scale(1,1)"><g><path fill="none" stroke="none"/><text fill="#000000" stroke="none" font-family="Arial" font-size="13px" font-style="normal" font-weight="normal" text-decoration="none" x="517" y="670.5">+ingresarCarta()</text></g></g><g transform="translate(-102,-22) scale(1,1)"><rect fill="#C0C0C0" stroke="none" x="983" y="791" width="139.08251953125" height="177" opacity="0.2"/></g><g transform="translate(-102,-22) scale(1,1)"><rect fill="#ffffff" stroke="none" x="976" y="784" width="139.08251953125" height="177"/></g><g transform="translate(-102,-22) scale(1,1)"><path fill="none" stroke="#000000" d="M 976 784 L 1115.08251953125 784 L 1115.08251953125 961 L 976 961 L 976 784 Z Z" stroke-miterlimit="10"/></g><g transform="translate(-102,-22) scale(1,1)"><path fill="none" stroke="#000000" d="M 976 809 L 1115.08251953125 809" stroke-miterlimit="10"/></g><g transform="translate(-102,-22) scale(1,1)"><path fill="none" stroke="#000000" d="M 976 832 L 1115.08251953125 832" stroke-miterlimit="10"/></g><g transform="translate(-102,-22) scale(1,1)"><g><path fill="none" stroke="none"/><text fill="#000000" stroke="none" font-family="Arial" font-size="13px" font-style="normal" font-weight="bold" text-decoration="none" x="1016.28173828125" y="803.5">BlackJack</text></g></g><g transform="translate(-102,-22) scale(1,1)"><g><path fill="none" stroke="none"/><text fill="#000000" stroke="none" font-family="Arial" font-size="13px" font-style="normal" font-weight="normal" text-decoration="none" x="981" y="826.5">-seguro: Boolean</text></g></g><g transform="translate(-102,-22) scale(1,1)"><g><path fill="none" stroke="none"/><text fill="#000000" stroke="none" font-family="Arial" font-size="13px" font-style="normal" font-weight="normal" text-decoration="none" x="981" y="849.5">+pedir()</text></g></g><g transform="translate(-102,-22) scale(1,1)"><g><path fill="none" stroke="none"/><text fill="#000000" stroke="none" font-family="Arial" font-size="13px" font-style="normal" font-weight="normal" text-decoration="none" x="981" y="864.5">+plantarse()</text></g></g><g transform="translate(-102,-22) scale(1,1)"><g><path fill="none" stroke="none"/><text fill="#000000" stroke="none" font-family="Arial" font-size="13px" font-style="normal" font-weight="normal" text-decoration="none" x="981" y="879.5">+doblar()</text></g></g><g transform="translate(-102,-22) scale(1,1)"><g><path fill="none" stroke="none"/><text fill="#000000" stroke="none" font-family="Arial" font-size="13px" font-style="normal" font-weight="normal" text-decoration="none" x="981" y="894.5">+separar()</text></g></g><g transform="translate(-102,-22) scale(1,1)"><g><path fill="none" stroke="none"/><text fill="#000000" stroke="none" font-family="Arial" font-size="13px" font-style="normal" font-weight="normal" text-decoration="none" x="981" y="909.5">+seguro()</text></g></g><g transform="translate(-102,-22) scale(1,1)"><g><path fill="none" stroke="none"/><text fill="#000000" stroke="none" font-family="Arial" font-size="13px" font-style="normal" font-weight="normal" text-decoration="none" x="981" y="924.5">+retirarse()</text></g></g><g transform="translate(-102,-22) scale(1,1)"><rect fill="#C0C0C0" stroke="none" x="615" y="791" width="143.0244140625" height="177" opacity="0.2"/></g><g transform="translate(-102,-22) scale(1,1)"><rect fill="#ffffff" stroke="none" x="608" y="784" width="143.0244140625" height="177"/></g><g transform="translate(-102,-22) scale(1,1)"><path fill="none" stroke="#000000" d="M 608 784 L 751.0244140625 784 L 751.0244140625 961 L 608 961 L 608 784 Z Z" stroke-miterlimit="10"/></g><g transform="translate(-102,-22) scale(1,1)"><path fill="none" stroke="#000000" d="M 608 809 L 751.0244140625 809" stroke-miterlimit="10"/></g><g transform="translate(-102,-22) scale(1,1)"><path fill="none" stroke="#000000" d="M 608 862 L 751.0244140625 862" stroke-miterlimit="10"/></g><g transform="translate(-102,-22) scale(1,1)"><g><path fill="none" stroke="none"/><text fill="#000000" stroke="none" font-family="Arial" font-size="13px" font-style="normal" font-weight="bold" text-decoration="none" x="662.5322265625" y="803.5">Poker</text></g></g><g transform="translate(-102,-22) scale(1,1)"><g><path fill="none" stroke="none"/><text fill="#000000" stroke="none" font-family="Arial" font-size="13px" font-style="normal" font-weight="normal" text-decoration="none" x="613" y="826.5">-dealer: Jugador</text></g></g><g transform="translate(-102,-22) scale(1,1)"><g><path fill="none" stroke="none"/><text fill="#000000" stroke="none" font-family="Arial" font-size="13px" font-style="normal" font-weight="normal" text-decoration="none" x="613" y="841.5">-etapa: Etapa</text></g></g><g transform="translate(-102,-22) scale(1,1)"><g><path fill="none" stroke="none"/><text fill="#000000" stroke="none" font-family="Arial" font-size="13px" font-style="normal" font-weight="normal" text-decoration="none" x="613" y="856.5">-allIn: Boolean</text></g></g><g transform="translate(-102,-22) scale(1,1)"><g><path fill="none" stroke="none"/><text fill="#000000" stroke="none" font-family="Arial" font-size="13px" font-style="normal" font-weight="normal" text-decoration="none" x="613" y="879.5">+retirarse()</text></g></g><g transform="translate(-102,-22) scale(1,1)"><g><path fill="none" stroke="none"/><text fill="#000000" stroke="none" font-family="Arial" font-size="13px" font-style="normal" font-weight="normal" text-decoration="none" x="613" y="894.5">+pasar()</text></g></g><g transform="translate(-102,-22) scale(1,1)"><g><path fill="none" stroke="none"/><text fill="#000000" stroke="none" font-family="Arial" font-size="13px" font-style="normal" font-weight="normal" text-decoration="none" x="613" y="909.5">+igualar()</text></g></g><g transform="translate(-102,-22) scale(1,1)"><g><path fill="none" stroke="none"/><text fill="#000000" stroke="none" font-family="Arial" font-size="13px" font-style="normal" font-weight="normal" text-decoration="none" x="613" y="924.5">+subir()</text></g></g><g transform="translate(-102,-22) scale(1,1)"><rect fill="#C0C0C0" stroke="none" x="742" y="311" width="272" height="192" opacity="0.2"/></g><g transform="translate(-102,-22) scale(1,1)"><rect fill="#ffffff" stroke="none" x="735" y="304" width="272" height="192"/></g><g transform="translate(-102,-22) scale(1,1)"><path fill="none" stroke="#000000" d="M 735 304 L 1007 304 L 1007 496 L 735 496 L 735 304 Z Z" stroke-miterlimit="10"/></g><g transform="translate(-102,-22) scale(1,1)"><path fill="none" stroke="#000000" d="M 735 329 L 1007 329" stroke-miterlimit="10"/></g><g transform="translate(-102,-22) scale(1,1)"><path fill="none" stroke="#000000" d="M 735 457 L 1007 457" stroke-miterlimit="10"/></g><g transform="translate(-102,-22) scale(1,1)"><g><path fill="none" stroke="none"/><text fill="#000000" stroke="none" font-family="Arial" font-size="13px" font-style="normal" font-weight="bold" text-decoration="none" x="853.2900390625" y="323.5">Juego</text></g></g><g transform="translate(-102,-22) scale(1,1)"><g><path fill="none" stroke="none"/><text fill="#000000" stroke="none" font-family="Arial" font-size="13px" font-style="normal" font-weight="normal" text-decoration="none" x="740" y="346.5">#capacidad: Int = 1</text></g></g><g transform="translate(-102,-22) scale(1,1)"><g><path fill="none" stroke="none"/><text fill="#000000" stroke="none" font-family="Arial" font-size="13px" font-style="normal" font-weight="normal" text-decoration="none" x="740" y="361.5">#capasidadMinimima: Int = 1</text></g></g><g transform="translate(-102,-22) scale(1,1)"><g><path fill="none" stroke="none"/><text fill="#000000" stroke="none" font-family="Arial" font-size="13px" font-style="normal" font-weight="normal" text-decoration="none" x="740" y="376.5">#jugadores: Jugador[capasidad]</text></g></g><g transform="translate(-102,-22) scale(1,1)"><g><path fill="none" stroke="none"/><text fill="#000000" stroke="none" font-family="Arial" font-size="13px" font-style="normal" font-weight="normal" text-decoration="none" x="740" y="391.5">#fechaPartida: Date</text></g></g><g transform="translate(-102,-22) scale(1,1)"><g><path fill="none" stroke="none"/><text fill="#000000" stroke="none" font-family="Arial" font-size="13px" font-style="normal" font-weight="normal" text-decoration="none" x="740" y="406.5">#horaInicio: Date</text></g></g><g transform="translate(-102,-22) scale(1,1)"><g><path fill="none" stroke="none"/><text fill="#000000" stroke="none" font-family="Arial" font-size="13px" font-style="normal" font-weight="normal" text-decoration="none" x="740" y="421.5">#horaFin: Date</text></g></g><g transform="translate(-102,-22) scale(1,1)"><g><path fill="none" stroke="none"/><text fill="#000000" stroke="none" font-family="Arial" font-size="13px" font-style="normal" font-weight="normal" text-decoration="none" x="740" y="436.5">#diseño</text></g></g><g transform="translate(-102,-22) scale(1,1)"><g><path fill="none" stroke="none"/><text fill="#000000" stroke="none" font-family="Arial" font-size="13px" font-style="normal" font-weight="normal" text-decoration="none" x="740" y="451.5">#turnoActivo: Jugador</text></g></g><g transform="translate(-102,-22) scale(1,1)"><g><path fill="none" stroke="none"/><text fill="#000000" stroke="none" font-family="Arial" font-size="13px" font-style="normal" font-weight="normal" text-decoration="none" x="740" y="474.5">+entrarJuego()</text></g></g><g transform="translate(-102,-22) scale(1,1)"><g><path fill="none" stroke="none"/><text fill="#000000" stroke="none" font-family="Arial" font-size="13px" font-style="normal" font-weight="normal" text-decoration="none" x="740" y="489.5">+salirJuego()</text></g></g><g transform="translate(-102,-22) scale(1,1)"><rect fill="#C0C0C0" stroke="none" x="1239" y="39" width="70.40000000000009" height="15" opacity="0.2"/></g><g transform="translate(-102,-22) scale(1,1)"><rect fill="#C0C0C0" stroke="none" x="1239" y="53" width="176" height="50" opacity="0.2"/></g><g transform="translate(-102,-22) scale(1,1)"><rect fill="#ffffff" stroke="none" x="1232" y="47" width="176" height="49"/></g><g transform="translate(-102,-22) scale(1,1)"><path fill="none" stroke="#000000" d="M 1232 47 L 1408 47 L 1408 96 L 1232 96 L 1232 47 Z Z" stroke-miterlimit="10"/></g><g transform="translate(-102,-22) scale(1,1)"><rect fill="#ffffff" stroke="none" x="1232" y="32" width="70.40000000000009" height="15"/></g><g transform="translate(-102,-22) scale(1,1)"><path fill="none" stroke="#000000" d="M 1232 32 L 1302.4 32 L 1302.4 47 L 1232 47 L 1232 32 Z Z" stroke-miterlimit="10"/></g><g transform="translate(-102,-22) scale(1,1)"><rect fill="#ffffff" stroke="none" x="1232" y="46" width="176" height="50"/></g><g transform="translate(-102,-22) scale(1,1)"><path fill="none" stroke="#000000" d="M 1232 46 L 1408 46 L 1408 96 L 1232 96 L 1232 46 Z Z" stroke-miterlimit="10"/></g><g transform="translate(-102,-22) scale(1,1)"><g><path fill="none" stroke="none"/><text fill="#000000" stroke="none" font-family="Arial" font-size="13px" font-style="normal" font-weight="bold" text-decoration="none" x="1304.095947265625" y="66.5">juego</text></g></g><g transform="translate(-102,-22) scale(1,1)"><g><path fill="none" stroke="none"/><text fill="#000000" stroke="none" font-family="Arial" font-size="13px" font-style="normal" font-weight="normal" text-decoration="none" x="1283.161376953125" y="81.5">(from Model)</text></g></g><g transform="translate(-102,-22) scale(1,1)"><rect fill="#C0C0C0" stroke="none" x="791" y="551" width="176" height="160" opacity="0.2"/></g><g transform="translate(-102,-22) scale(1,1)"><rect fill="#ffffff" stroke="none" x="784" y="544" width="176" height="160"/></g><g transform="translate(-102,-22) scale(1,1)"><path fill="none" stroke="#000000" d="M 784 544 L 960 544 L 960 704 L 784 704 L 784 544 Z Z" stroke-miterlimit="10"/></g><g transform="translate(-102,-22) scale(1,1)"><path fill="none" stroke="#000000" d="M 784 569 L 960 569" stroke-miterlimit="10"/></g><g transform="translate(-102,-22) scale(1,1)"><path fill="none" stroke="#000000" d="M 784 637 L 960 637" stroke-miterlimit="10"/></g><g transform="translate(-102,-22) scale(1,1)"><g><path fill="none" stroke="none"/><text fill="#000000" stroke="none" font-family="Arial" font-size="13px" font-style="italic" font-weight="bold" text-decoration="none" x="826.83642578125" y="563.5">JuegoDeCartas</text></g></g><g transform="translate(-102,-22) scale(1,1)"><g><path fill="none" stroke="none"/><text fill="#000000" stroke="none" font-family="Arial" font-size="13px" font-style="normal" font-weight="normal" text-decoration="none" x="789" y="586.5">#mazo: Mazo</text></g></g><g transform="translate(-102,-22) scale(1,1)"><g><path fill="none" stroke="none"/><text fill="#000000" stroke="none" font-family="Arial" font-size="13px" font-style="normal" font-weight="normal" text-decoration="none" x="789" y="601.5">#motoDescartes</text></g></g><g transform="translate(-102,-22) scale(1,1)"><g><path fill="none" stroke="none"/><text fill="#000000" stroke="none" font-family="Arial" font-size="13px" font-style="normal" font-weight="normal" text-decoration="none" x="789" y="616.5">#baseMesa</text></g></g><g transform="translate(-102,-22) scale(1,1)"><g><path fill="none" stroke="none"/><text fill="#000000" stroke="none" font-family="Arial" font-size="13px" font-style="normal" font-weight="normal" text-decoration="none" x="789" y="631.5">#apuestas: Long[7]</text></g></g><g transform="translate(-102,-22) scale(1,1)"><g><path fill="none" stroke="none"/><text fill="#000000" stroke="none" font-family="Arial" font-size="13px" font-style="italic" font-weight="normal" text-decoration="none" x="789" y="654.5">+repartirCartas()</text></g></g><g transform="translate(-102,-22) scale(1,1)"><g><path fill="none" stroke="none"/><text fill="#000000" stroke="none" font-family="Arial" font-size="13px" font-style="italic" font-weight="normal" text-decoration="none" x="789" y="669.5">+pagarApuesta()</text></g></g><g transform="translate(-102,-22) scale(1,1)"><g><path fill="none" stroke="none"/><text fill="#000000" stroke="none" font-family="Arial" font-size="13px" font-style="normal" font-weight="normal" text-decoration="none" x="789" y="684.5">+apostar()</text></g></g><g transform="translate(-102,-22) scale(1,1)"><path fill="none" stroke="#000000" d="M 1048 784 L 1048 752 L 872 752 L 872 704" stroke-miterlimit="10"/></g><g transform="translate(-102,-22) scale(1,1)"><path fill="#FFFFFF" stroke="none" d="M 880.419035512032 724.3253497152483 L 872 704 L 863.580964487968 724.3253497152483"/></g><g transform="translate(-102,-22) scale(1,1)"><path fill="none" stroke="#000000" d="M 880.419035512032 724.3253497152483 L 872 704 L 863.580964487968 724.3253497152483 L 880.419035512032 724.3253497152483" stroke-miterlimit="10"/></g><g transform="translate(-102,-22) scale(1,1)"><path fill="none" stroke="#000000" d="M 680 784 L 680 752 L 872 752 L 872 704" stroke-miterlimit="10"/></g><g transform="translate(-102,-22) scale(1,1)"><path fill="#FFFFFF" stroke="none" d="M 880.419035512032 724.3253497152483 L 872 704 L 863.580964487968 724.3253497152483"/></g><g transform="translate(-102,-22) scale(1,1)"><path fill="none" stroke="#000000" d="M 880.419035512032 724.3253497152483 L 872 704 L 863.580964487968 724.3253497152483 L 880.419035512032 724.3253497152483" stroke-miterlimit="10"/></g><g transform="translate(-102,-22) scale(1,1)"><path fill="none" stroke="#000000" d="M 868 544 L 868 496" stroke-miterlimit="10"/></g><g transform="translate(-102,-22) scale(1,1)"><path fill="#FFFFFF" stroke="none" d="M 876.419035512032 516.3253497152483 L 868 496 L 859.580964487968 516.3253497152483"/></g><g transform="translate(-102,-22) scale(1,1)"><path fill="none" stroke="#000000" d="M 876.419035512032 516.3253497152483 L 868 496 L 859.580964487968 516.3253497152483 L 876.419035512032 516.3253497152483" stroke-miterlimit="10"/></g><g transform="translate(-102,-22) scale(1,1)"><path fill="none" stroke="#000000" d="M 616 409 L 735 409" stroke-miterlimit="10"/></g><g transform="translate(-102,-22) scale(1,1)"><path fill="none" stroke="#000000" d="M 724.8373251423759 413.209517756016 L 735 409 L 724.8373251423758 404.790482243984" stroke-miterlimit="10"/></g><g transform="translate(-102,-22) scale(1,1)"><path fill="none" stroke="#000000" d="M 626 624 L 783 624" stroke-miterlimit="10"/></g><g transform="translate(-102,-22) scale(1,1)"><path fill="none" stroke="#000000" d="M 772.8373251423759 628.209517756016 L 783 624 L 772.8373251423758 619.790482243984" stroke-miterlimit="10"/></g><g transform="translate(-102,-22) scale(1,1)"><rect fill="#C0C0C0" stroke="none" x="327" y="583" width="128" height="96" opacity="0.2"/></g><g transform="translate(-102,-22) scale(1,1)"><rect fill="#ffffff" stroke="none" x="320" y="576" width="128" height="96"/></g><g transform="translate(-102,-22) scale(1,1)"><path fill="none" stroke="#000000" d="M 320 576 L 448 576 L 448 672 L 320 672 L 320 576 Z Z" stroke-miterlimit="10"/></g><g transform="translate(-102,-22) scale(1,1)"><path fill="none" stroke="#000000" d="M 320 601 L 448 601" stroke-miterlimit="10"/></g><g transform="translate(-102,-22) scale(1,1)"><path fill="none" stroke="#000000" d="M 320 639 L 448 639" stroke-miterlimit="10"/></g><g transform="translate(-102,-22) scale(1,1)"><g><path fill="none" stroke="none"/><text fill="#000000" stroke="none" font-family="Arial" font-size="13px" font-style="normal" font-weight="bold" text-decoration="none" x="368.10546875" y="595.5">Carta</text></g></g><g transform="translate(-102,-22) scale(1,1)"><g><path fill="none" stroke="none"/><text fill="#000000" stroke="none" font-family="Arial" font-size="13px" font-style="normal" font-weight="normal" text-decoration="none" x="325" y="618.5">-pinta: Pinta</text></g></g><g transform="translate(-102,-22) scale(1,1)"><g><path fill="none" stroke="none"/><text fill="#000000" stroke="none" font-family="Arial" font-size="13px" font-style="normal" font-weight="normal" text-decoration="none" x="325" y="633.5">-numeroLetra: Char</text></g></g><g transform="translate(-102,-22) scale(1,1)"><rect fill="#C0C0C0" stroke="none" x="143" y="567" width="136" height="128" opacity="0.2"/></g><g transform="translate(-102,-22) scale(1,1)"><rect fill="#ffffff" stroke="none" x="136" y="560" width="136" height="128"/></g><g transform="translate(-102,-22) scale(1,1)"><path fill="none" stroke="#000000" d="M 136 560 L 272 560 L 272 688 L 136 688 L 136 560 Z Z" stroke-miterlimit="10"/></g><g transform="translate(-102,-22) scale(1,1)"><path fill="none" stroke="#000000" d="M 136 598 L 272 598" stroke-miterlimit="10"/></g><g transform="translate(-102,-22) scale(1,1)"><g><path fill="none" stroke="none"/><text fill="#000000" stroke="none" font-family="Arial" font-size="13px" font-style="normal" font-weight="normal" text-decoration="none" x="160.635986328125" y="577.5">«enumeration»</text></g></g><g transform="translate(-102,-22) scale(1,1)"><g><path fill="none" stroke="none"/><text fill="#000000" stroke="none" font-family="Arial" font-size="13px" font-style="normal" font-weight="bold" text-decoration="none" x="189.1845703125" y="592.5">Pinta</text></g></g><g transform="translate(-102,-22) scale(1,1)"><g><path fill="none" stroke="none"/><text fill="#000000" stroke="none" font-family="Arial" font-size="13px" font-style="normal" font-weight="normal" text-decoration="none" x="141" y="615.5">CORAZONES</text></g></g><g transform="translate(-102,-22) scale(1,1)"><g><path fill="none" stroke="none"/><text fill="#000000" stroke="none" font-family="Arial" font-size="13px" font-style="normal" font-weight="normal" text-decoration="none" x="141" y="630.5">PICAS</text></g></g><g transform="translate(-102,-22) scale(1,1)"><g><path fill="none" stroke="none"/><text fill="#000000" stroke="none" font-family="Arial" font-size="13px" font-style="normal" font-weight="normal" text-decoration="none" x="141" y="645.5">DIAMANTES</text></g></g><g transform="translate(-102,-22) scale(1,1)"><g><path fill="none" stroke="none"/><text fill="#000000" stroke="none" font-family="Arial" font-size="13px" font-style="normal" font-weight="normal" text-decoration="none" x="141" y="660.5">TREBOL</text></g></g><g transform="translate(-102,-22) scale(1,1)"><path fill="none" stroke="#000000" d="M 449 624 L 511 624" stroke-miterlimit="10"/></g><g transform="translate(-102,-22) scale(1,1)"><path fill="none" stroke="#000000" d="M 500.83732514237585 628.209517756016 L 511 624 L 500.83732514237585 619.790482243984" stroke-miterlimit="10"/></g><g transform="translate(-102,-22) scale(1,1)"><path fill="none" stroke="#000000" d="M 464 408 L 112 408 L 112 880 L 608 880" stroke-miterlimit="10"/></g><g transform="translate(-102,-22) scale(1,1)"><path fill="none" stroke="#000000" d="M 597.8373251423759 884.209517756016 L 608 880 L 597.8373251423758 875.790482243984" stroke-miterlimit="10"/></g><g transform="translate(-102,-22) scale(1,1)"><rect fill="#C0C0C0" stroke="none" x="823" y="823" width="95.72802734375" height="128" opacity="0.2"/></g><g transform="translate(-102,-22) scale(1,1)"><rect fill="#ffffff" stroke="none" x="816" y="816" width="95.72802734375" height="128"/></g><g transform="translate(-102,-22) scale(1,1)"><path fill="none" stroke="#000000" d="M 816 816 L 911.72802734375 816 L 911.72802734375 944 L 816 944 L 816 816 Z Z" stroke-miterlimit="10"/></g><g transform="translate(-102,-22) scale(1,1)"><path fill="none" stroke="#000000" d="M 816 854 L 911.72802734375 854" stroke-miterlimit="10"/></g><g transform="translate(-102,-22) scale(1,1)"><g><path fill="none" stroke="none"/><text fill="#000000" stroke="none" font-family="Arial" font-size="13px" font-style="normal" font-weight="normal" text-decoration="none" x="820.5" y="833.5">«enumeration»</text></g></g><g transform="translate(-102,-22) scale(1,1)"><g><path fill="none" stroke="none"/><text fill="#000000" stroke="none" font-family="Arial" font-size="13px" font-style="normal" font-weight="bold" text-decoration="none" x="846.877685546875" y="848.5">Etapa</text></g></g><g transform="translate(-102,-22) scale(1,1)"><g><path fill="none" stroke="none"/><text fill="#000000" stroke="none" font-family="Arial" font-size="13px" font-style="normal" font-weight="normal" text-decoration="none" x="821" y="871.5">PRE_FLOP</text></g></g><g transform="translate(-102,-22) scale(1,1)"><g><path fill="none" stroke="none"/><text fill="#000000" stroke="none" font-family="Arial" font-size="13px" font-style="normal" font-weight="normal" text-decoration="none" x="821" y="886.5">FLOP</text></g></g><g transform="translate(-102,-22) scale(1,1)"><g><path fill="none" stroke="none"/><text fill="#000000" stroke="none" font-family="Arial" font-size="13px" font-style="normal" font-weight="normal" text-decoration="none" x="821" y="901.5">TURN</text></g></g><g transform="translate(-102,-22) scale(1,1)"><g><path fill="none" stroke="none"/><text fill="#000000" stroke="none" font-family="Arial" font-size="13px" font-style="normal" font-weight="normal" text-decoration="none" x="821" y="916.5">RIVER</text></g></g><g transform="translate(-102,-22) scale(1,1)"><g><path fill="none" stroke="none"/><text fill="#000000" stroke="none" font-family="Arial" font-size="13px" font-style="normal" font-weight="normal" text-decoration="none" x="821" y="931.5">SHOWDOWN</text></g></g><g transform="translate(-102,-22) scale(1,1)"><path fill="none" stroke="#000000" d="M 273 624 L 319 624" stroke-miterlimit="10"/></g><g transform="translate(-102,-22) scale(1,1)"><path fill="none" stroke="#000000" d="M 308.83732514237585 628.209517756016 L 319 624 L 308.83732514237585 619.790482243984" stroke-miterlimit="10"/></g><g transform="translate(-102,-22) scale(1,1)"><path fill="none" stroke="#000000" d="M 816 878 L 751 878" stroke-miterlimit="10"/></g><g transform="translate(-102,-22) scale(1,1)"><path fill="none" stroke="#000000" d="M 761.1626748576241 873.790482243984 L 751 878 L 761.1626748576241 882.209517756016" stroke-miterlimit="10"/></g><g transform="translate(-102,-22) scale(1,1)"><rect fill="#C0C0C0" stroke="none" x="1239" y="199" width="70.40000000000009" height="15" opacity="0.2"/></g><g transform="translate(-102,-22) scale(1,1)"><rect fill="#C0C0C0" stroke="none" x="1239" y="213" width="176" height="50" opacity="0.2"/></g><g transform="translate(-102,-22) scale(1,1)"><rect fill="#ffffff" stroke="none" x="1232" y="207" width="176" height="49"/></g><g transform="translate(-102,-22) scale(1,1)"><path fill="none" stroke="#000000" d="M 1232 207 L 1408 207 L 1408 256 L 1232 256 L 1232 207 Z Z" stroke-miterlimit="10"/></g><g transform="translate(-102,-22) scale(1,1)"><rect fill="#ffffff" stroke="none" x="1232" y="192" width="70.40000000000009" height="15"/></g><g transform="translate(-102,-22) scale(1,1)"><path fill="none" stroke="#000000" d="M 1232 192 L 1302.4 192 L 1302.4 207 L 1232 207 L 1232 192 Z Z" stroke-miterlimit="10"/></g><g transform="translate(-102,-22) scale(1,1)"><rect fill="#ffffff" stroke="none" x="1232" y="206" width="176" height="50"/></g><g transform="translate(-102,-22) scale(1,1)"><path fill="none" stroke="#000000" d="M 1232 206 L 1408 206 L 1408 256 L 1232 256 L 1232 206 Z Z" stroke-miterlimit="10"/></g><g transform="translate(-102,-22) scale(1,1)"><g><path fill="none" stroke="none"/><text fill="#000000" stroke="none" font-family="Arial" font-size="13px" font-style="normal" font-weight="bold" text-decoration="none" x="1303.740478515625" y="226.5">poker</text></g></g><g transform="translate(-102,-22) scale(1,1)"><g><path fill="none" stroke="none"/><text fill="#000000" stroke="none" font-family="Arial" font-size="13px" font-style="normal" font-weight="normal" text-decoration="none" x="1257.50732421875" y="241.5">(from juegoDeCartas)</text></g></g><g transform="translate(-102,-22) scale(1,1)"><rect fill="#C0C0C0" stroke="none" x="1239" y="279" width="70.40000000000009" height="15" opacity="0.2"/></g><g transform="translate(-102,-22) scale(1,1)"><rect fill="#C0C0C0" stroke="none" x="1239" y="293" width="176" height="48" opacity="0.2"/></g><g transform="translate(-102,-22) scale(1,1)"><rect fill="#ffffff" stroke="none" x="1232" y="287" width="176" height="47"/></g><g transform="translate(-102,-22) scale(1,1)"><path fill="none" stroke="#000000" d="M 1232 287 L 1408 287 L 1408 334 L 1232 334 L 1232 287 Z Z" stroke-miterlimit="10"/></g><g transform="translate(-102,-22) scale(1,1)"><rect fill="#ffffff" stroke="none" x="1232" y="272" width="70.40000000000009" height="15"/></g><g transform="translate(-102,-22) scale(1,1)"><path fill="none" stroke="#000000" d="M 1232 272 L 1302.4 272 L 1302.4 287 L 1232 287 L 1232 272 Z Z" stroke-miterlimit="10"/></g><g transform="translate(-102,-22) scale(1,1)"><rect fill="#ffffff" stroke="none" x="1232" y="286" width="176" height="48"/></g><g transform="translate(-102,-22) scale(1,1)"><path fill="none" stroke="#000000" d="M 1232 286 L 1408 286 L 1408 334 L 1232 334 L 1232 286 Z Z" stroke-miterlimit="10"/></g><g transform="translate(-102,-22) scale(1,1)"><g><path fill="none" stroke="none"/><text fill="#000000" stroke="none" font-family="Arial" font-size="13px" font-style="normal" font-weight="bold" text-decoration="none" x="1304.10546875" y="306.5">mazo</text></g></g><g transform="translate(-102,-22) scale(1,1)"><g><path fill="none" stroke="none"/><text fill="#000000" stroke="none" font-family="Arial" font-size="13px" font-style="normal" font-weight="normal" text-decoration="none" x="1257.50732421875" y="321.5">(from juegoDeCartas)</text></g></g><g transform="translate(-102,-22) scale(1,1)"><rect fill="#C0C0C0" stroke="none" x="1239" y="359" width="70.40000000000009" height="15" opacity="0.2"/></g><g transform="translate(-102,-22) scale(1,1)"><rect fill="#C0C0C0" stroke="none" x="1239" y="373" width="176" height="50" opacity="0.2"/></g><g transform="translate(-102,-22) scale(1,1)"><rect fill="#ffffff" stroke="none" x="1232" y="367" width="176" height="49"/></g><g transform="translate(-102,-22) scale(1,1)"><path fill="none" stroke="#000000" d="M 1232 367 L 1408 367 L 1408 416 L 1232 416 L 1232 367 Z Z" stroke-miterlimit="10"/></g><g transform="translate(-102,-22) scale(1,1)"><rect fill="#ffffff" stroke="none" x="1232" y="352" width="70.40000000000009" height="15"/></g><g transform="translate(-102,-22) scale(1,1)"><path fill="none" stroke="#000000" d="M 1232 352 L 1302.4 352 L 1302.4 367 L 1232 367 L 1232 352 Z Z" stroke-miterlimit="10"/></g><g transform="translate(-102,-22) scale(1,1)"><rect fill="#ffffff" stroke="none" x="1232" y="366" width="176" height="50"/></g><g transform="translate(-102,-22) scale(1,1)"><path fill="none" stroke="#000000" d="M 1232 366 L 1408 366 L 1408 416 L 1232 416 L 1232 366 Z Z" stroke-miterlimit="10"/></g><g transform="translate(-102,-22) scale(1,1)"><g><path fill="none" stroke="none"/><text fill="#000000" stroke="none" font-family="Arial" font-size="13px" font-style="normal" font-weight="bold" text-decoration="none" x="1305.549560546875" y="386.5">carta</text></g></g><g transform="translate(-102,-22) scale(1,1)"><g><path fill="none" stroke="none"/><text fill="#000000" stroke="none" font-family="Arial" font-size="13px" font-style="normal" font-weight="normal" text-decoration="none" x="1257.50732421875" y="401.5">(from juegoDeCartas)</text></g></g><g transform="translate(-102,-22) scale(1,1)"><rect fill="#C0C0C0" stroke="none" x="1239" y="119" width="70.40000000000009" height="15" opacity="0.2"/></g><g transform="translate(-102,-22) scale(1,1)"><rect fill="#C0C0C0" stroke="none" x="1239" y="133" width="176" height="50" opacity="0.2"/></g><g transform="translate(-102,-22) scale(1,1)"><rect fill="#ffffff" stroke="none" x="1232" y="127" width="176" height="49"/></g><g transform="translate(-102,-22) scale(1,1)"><path fill="none" stroke="#000000" d="M 1232 127 L 1408 127 L 1408 176 L 1232 176 L 1232 127 Z Z" stroke-miterlimit="10"/></g><g transform="translate(-102,-22) scale(1,1)"><rect fill="#ffffff" stroke="none" x="1232" y="112" width="70.40000000000009" height="15"/></g><g transform="translate(-102,-22) scale(1,1)"><path fill="none" stroke="#000000" d="M 1232 112 L 1302.4 112 L 1302.4 127 L 1232 127 L 1232 112 Z Z" stroke-miterlimit="10"/></g><g transform="translate(-102,-22) scale(1,1)"><rect fill="#ffffff" stroke="none" x="1232" y="126" width="176" height="50"/></g><g transform="translate(-102,-22) scale(1,1)"><path fill="none" stroke="#000000" d="M 1232 126 L 1408 126 L 1408 176 L 1232 176 L 1232 126 Z Z" stroke-miterlimit="10"/></g><g transform="translate(-102,-22) scale(1,1)"><path fill="none" stroke="#000000" d="M 1294.4 115 L 1294.4 119" stroke-miterlimit="10"/></g><g transform="translate(-102,-22) scale(1,1)"><path fill="none" stroke="#000000" d="M 1291.4 123 L 1291.4 119 L 1297.4 119" stroke-miterlimit="10"/></g><g transform="translate(-102,-22) scale(1,1)"><path fill="none" stroke="#000000" d="M 1297.4 123 L 1297.4 119 L 1291.4 119" stroke-miterlimit="10"/></g><g transform="translate(-102,-22) scale(1,1)"><g><path fill="none" stroke="none"/><text fill="#000000" stroke="none" font-family="Arial" font-size="13px" font-style="normal" font-weight="bold" text-decoration="none" x="1276.642333984375" y="146.5">juegoDeCartas</text></g></g><g transform="translate(-102,-22) scale(1,1)"><g><path fill="none" stroke="none"/><text fill="#000000" stroke="none" font-family="Arial" font-size="13px" font-style="normal" font-weight="normal" text-decoration="none" x="1284.9609375" y="161.5">(from juego)</text></g></g><g transform="translate(-102,-22) scale(1,1)"><rect fill="#C0C0C0" stroke="none" x="471" y="127" width="144" height="128" opacity="0.2"/></g><g transform="translate(-102,-22) scale(1,1)"><rect fill="#ffffff" stroke="none" x="464" y="120" width="144" height="128"/></g><g transform="translate(-102,-22) scale(1,1)"><path fill="none" stroke="#000000" d="M 464 120 L 608 120 L 608 248 L 464 248 L 464 120 Z Z" stroke-miterlimit="10"/></g><g transform="translate(-102,-22) scale(1,1)"><path fill="none" stroke="#000000" d="M 464 145 L 608 145" stroke-miterlimit="10"/></g><g transform="translate(-102,-22) scale(1,1)"><path fill="none" stroke="#000000" d="M 464 155 L 608 155" stroke-miterlimit="10"/></g><g transform="translate(-102,-22) scale(1,1)"><g><path fill="none" stroke="none"/><text fill="#000000" stroke="none" font-family="Arial" font-size="13px" font-style="normal" font-weight="bold" text-decoration="none" x="490.83642578125" y="139.5">JugadorService</text></g></g><g transform="translate(-102,-22) scale(1,1)"><g><path fill="none" stroke="none"/><text fill="#000000" stroke="none" font-family="Arial" font-size="13px" font-style="normal" font-weight="normal" text-decoration="none" x="469" y="172.5">+agregar()</text></g></g><g transform="translate(-102,-22) scale(1,1)"><g><path fill="none" stroke="none"/><text fill="#000000" stroke="none" font-family="Arial" font-size="13px" font-style="normal" font-weight="normal" text-decoration="none" x="469" y="187.5">+remover()</text></g></g><g transform="translate(-102,-22) scale(1,1)"><g><path fill="none" stroke="none"/><text fill="#000000" stroke="none" font-family="Arial" font-size="13px" font-style="normal" font-weight="normal" text-decoration="none" x="469" y="202.5">+obtener()</text></g></g><g transform="translate(-102,-22) scale(1,1)"><g><path fill="none" stroke="none"/><text fill="#000000" stroke="none" font-family="Arial" font-size="13px" font-style="normal" font-weight="normal" text-decoration="none" x="469" y="217.5">+obtenerTodos()</text></g></g><g transform="translate(-102,-22) scale(1,1)"><g><path fill="none" stroke="none"/><text fill="#000000" stroke="none" font-family="Arial" font-size="13px" font-style="normal" font-weight="normal" text-decoration="none" x="469" y="232.5">+actualizar()</text></g></g><g transform="translate(-102,-22) scale(1,1)"><path fill="none" stroke="#000000" d="M 537 249 L 539 319" stroke-miterlimit="10" stroke-dasharray="3"/></g><g transform="translate(-102,-22) scale(1,1)"><path fill="none" stroke="#000000" d="M 534.5019556671291 308.96169351038094 L 539 319 L 542.9175569405878 308.7212477597107" stroke-miterlimit="10"/></g></g></svg>