<svg version="1.1" xmlns="http://www.w3.org/2000/svg" xmlns:xlink="http://www.w3.org/1999/xlink" width="1612" height="1166"><defs/><g><g transform="translate(-398,-21) scale(1,1)"><rect fill="#C0C0C0" stroke="none" x="415" y="327" width="259.38330078125" height="160" opacity="0.2"/></g><g transform="translate(-398,-21) scale(1,1)"><rect fill="#ffffff" stroke="none" x="408" y="320" width="259.38330078125" height="160"/></g><g transform="translate(-398,-21) scale(1,1)"><path fill="none" stroke="#000000" d="M 408 320 L 667.38330078125 320 L 667.38330078125 480 L 408 480 L 408 320 Z Z" stroke-miterlimit="10"/></g><g transform="translate(-398,-21) scale(1,1)"><path fill="none" stroke="#000000" d="M 408 345 L 667.38330078125 345" stroke-miterlimit="10"/></g><g transform="translate(-398,-21) scale(1,1)"><path fill="none" stroke="#000000" d="M 408 443 L 667.38330078125 443" stroke-miterlimit="10"/></g><g transform="translate(-398,-21) scale(1,1)"><g><path fill="none" stroke="none"/><text fill="#000000" stroke="none" font-family="Arial" font-size="13px" font-style="normal" font-weight="bold" text-decoration="none" x="515.2939453125" y="339.5">Usuario</text></g></g><g transform="translate(-398,-21) scale(1,1)"><g><path fill="none" stroke="none"/><text fill="#000000" stroke="none" font-family="Arial" font-size="13px" font-style="normal" font-weight="normal" text-decoration="none" x="413" y="362.5">-id: String = DF000 {id, unique}</text></g></g><g transform="translate(-398,-21) scale(1,1)"><g><path fill="none" stroke="none"/><text fill="#000000" stroke="none" font-family="Arial" font-size="13px" font-style="normal" font-weight="normal" text-decoration="none" x="413" y="377.5">-nombre: String = NN</text></g></g><g transform="translate(-398,-21) scale(1,1)"><g><path fill="none" stroke="none"/><text fill="#000000" stroke="none" font-family="Arial" font-size="13px" font-style="normal" font-weight="normal" text-decoration="none" x="413" y="392.5">-apellido: String = NN</text></g></g><g transform="translate(-398,-21) scale(1,1)"><g><path fill="none" stroke="none"/><text fill="#000000" stroke="none" font-family="Arial" font-size="13px" font-style="normal" font-weight="normal" text-decoration="none" x="413" y="407.5">-saldo: Int = 0</text></g></g><g transform="translate(-398,-21) scale(1,1)"><g><path fill="none" stroke="none"/><text fill="#000000" stroke="none" font-family="Arial" font-size="13px" font-style="normal" font-weight="normal" text-decoration="none" x="413" y="422.5">-totalApostodo: Int = 0</text></g></g><g transform="translate(-398,-21) scale(1,1)"><g><path fill="none" stroke="none"/><text fill="#000000" stroke="none" font-family="Arial" font-size="13px" font-style="normal" font-weight="normal" text-decoration="none" x="413" y="437.5">-historial: Pila</text></g></g><g transform="translate(-398,-21) scale(1,1)"><g><path fill="none" stroke="none"/><text fill="#000000" stroke="none" font-family="Arial" font-size="13px" font-style="normal" font-weight="normal" text-decoration="none" x="413" y="460.5">+generarId(nombre: String, apellido: String)</text></g></g><g transform="translate(-398,-21) scale(1,1)"><rect fill="#C0C0C0" stroke="none" x="807" y="1047" width="170.8525390625" height="128" opacity="0.2"/></g><g transform="translate(-398,-21) scale(1,1)"><rect fill="#ffffff" stroke="none" x="800" y="1040" width="170.8525390625" height="128"/></g><g transform="translate(-398,-21) scale(1,1)"><path fill="none" stroke="#000000" d="M 800 1040 L 970.8525390625 1040 L 970.8525390625 1168 L 800 1168 L 800 1040 Z Z" stroke-miterlimit="10"/></g><g transform="translate(-398,-21) scale(1,1)"><path fill="none" stroke="#000000" d="M 800 1065 L 970.8525390625 1065" stroke-miterlimit="10"/></g><g transform="translate(-398,-21) scale(1,1)"><path fill="none" stroke="#000000" d="M 800 1103 L 970.8525390625 1103" stroke-miterlimit="10"/></g><g transform="translate(-398,-21) scale(1,1)"><g><path fill="none" stroke="none"/><text fill="#000000" stroke="none" font-family="Arial" font-size="13px" font-style="normal" font-weight="bold" text-decoration="none" x="869.53173828125" y="1059.5">Mazo</text></g></g><g transform="translate(-398,-21) scale(1,1)"><g><path fill="none" stroke="none"/><text fill="#000000" stroke="none" font-family="Arial" font-size="13px" font-style="normal" font-weight="normal" text-decoration="none" x="805" y="1082.5">-tamanoMazo: Int = 52</text></g></g><g transform="translate(-398,-21) scale(1,1)"><g><path fill="none" stroke="none"/><text fill="#000000" stroke="none" font-family="Arial" font-size="13px" font-style="normal" font-weight="normal" text-decoration="none" x="805" y="1097.5">-baraja: Carta[tamañoMazo]</text></g></g><g transform="translate(-398,-21) scale(1,1)"><g><path fill="none" stroke="none"/><text fill="#000000" stroke="none" font-family="Arial" font-size="13px" font-style="normal" font-weight="normal" text-decoration="none" x="805" y="1120.5">+barajear()</text></g></g><g transform="translate(-398,-21) scale(1,1)"><g><path fill="none" stroke="none"/><text fill="#000000" stroke="none" font-family="Arial" font-size="13px" font-style="normal" font-weight="normal" text-decoration="none" x="805" y="1135.5">+sacarCarta()</text></g></g><g transform="translate(-398,-21) scale(1,1)"><g><path fill="none" stroke="none"/><text fill="#000000" stroke="none" font-family="Arial" font-size="13px" font-style="normal" font-weight="normal" text-decoration="none" x="805" y="1150.5">+ingresarCarta()</text></g></g><g transform="translate(-398,-21) scale(1,1)"><rect fill="#C0C0C0" stroke="none" x="1159" y="575" width="283.23779296875" height="177" opacity="0.2"/></g><g transform="translate(-398,-21) scale(1,1)"><rect fill="#ffffff" stroke="none" x="1152" y="568" width="283.23779296875" height="177"/></g><g transform="translate(-398,-21) scale(1,1)"><path fill="none" stroke="#000000" d="M 1152 568 L 1435.23779296875 568 L 1435.23779296875 745 L 1152 745 L 1152 568 Z Z" stroke-miterlimit="10"/></g><g transform="translate(-398,-21) scale(1,1)"><path fill="none" stroke="#000000" d="M 1152 593 L 1435.23779296875 593" stroke-miterlimit="10"/></g><g transform="translate(-398,-21) scale(1,1)"><path fill="none" stroke="#000000" d="M 1152 616 L 1435.23779296875 616" stroke-miterlimit="10"/></g><g transform="translate(-398,-21) scale(1,1)"><g><path fill="none" stroke="none"/><text fill="#000000" stroke="none" font-family="Arial" font-size="13px" font-style="normal" font-weight="bold" text-decoration="none" x="1264.359375" y="587.5">BlackJack</text></g></g><g transform="translate(-398,-21) scale(1,1)"><g><path fill="none" stroke="none"/><text fill="#000000" stroke="none" font-family="Arial" font-size="13px" font-style="normal" font-weight="normal" text-decoration="none" x="1157" y="610.5">-seguro: Boolean = false</text></g></g><g transform="translate(-398,-21) scale(1,1)"><g><path fill="none" stroke="none"/><text fill="#000000" stroke="none" font-family="Arial" font-size="13px" font-style="normal" font-weight="normal" text-decoration="none" x="1157" y="633.5">+pedir(jugador: Usuario)</text></g></g><g transform="translate(-398,-21) scale(1,1)"><g><path fill="none" stroke="none"/><text fill="#000000" stroke="none" font-family="Arial" font-size="13px" font-style="normal" font-weight="normal" text-decoration="none" x="1157" y="648.5">+plantarse(jugador: Usuario)</text></g></g><g transform="translate(-398,-21) scale(1,1)"><g><path fill="none" stroke="none"/><text fill="#000000" stroke="none" font-family="Arial" font-size="13px" font-style="normal" font-weight="normal" text-decoration="none" x="1157" y="663.5">+doblar(jugador: Usuario)</text></g></g><g transform="translate(-398,-21) scale(1,1)"><g><path fill="none" stroke="none"/><text fill="#000000" stroke="none" font-family="Arial" font-size="13px" font-style="normal" font-weight="normal" text-decoration="none" x="1157" y="678.5">+separar(jugador: Usuario)</text></g></g><g transform="translate(-398,-21) scale(1,1)"><g><path fill="none" stroke="none"/><text fill="#000000" stroke="none" font-family="Arial" font-size="13px" font-style="normal" font-weight="normal" text-decoration="none" x="1157" y="693.5">+seguro(jugador: Usuario, cantidadApostar: Int)</text></g></g><g transform="translate(-398,-21) scale(1,1)"><g><path fill="none" stroke="none"/><text fill="#000000" stroke="none" font-family="Arial" font-size="13px" font-style="normal" font-weight="normal" text-decoration="none" x="1157" y="708.5">+retirarse(jugador: Usuario)</text></g></g><g transform="translate(-398,-21) scale(1,1)"><rect fill="#C0C0C0" stroke="none" x="1159" y="951" width="271.666015625" height="177" opacity="0.2"/></g><g transform="translate(-398,-21) scale(1,1)"><rect fill="#ffffff" stroke="none" x="1152" y="944" width="271.666015625" height="177"/></g><g transform="translate(-398,-21) scale(1,1)"><path fill="none" stroke="#000000" d="M 1152 944 L 1423.666015625 944 L 1423.666015625 1121 L 1152 1121 L 1152 944 Z Z" stroke-miterlimit="10"/></g><g transform="translate(-398,-21) scale(1,1)"><path fill="none" stroke="#000000" d="M 1152 969 L 1423.666015625 969" stroke-miterlimit="10"/></g><g transform="translate(-398,-21) scale(1,1)"><path fill="none" stroke="#000000" d="M 1152 1037 L 1423.666015625 1037" stroke-miterlimit="10"/></g><g transform="translate(-398,-21) scale(1,1)"><g><path fill="none" stroke="none"/><text fill="#000000" stroke="none" font-family="Arial" font-size="13px" font-style="normal" font-weight="bold" text-decoration="none" x="1270.85302734375" y="963.5">Poker</text></g></g><g transform="translate(-398,-21) scale(1,1)"><g><path fill="none" stroke="none"/><text fill="#000000" stroke="none" font-family="Arial" font-size="13px" font-style="normal" font-weight="normal" text-decoration="none" x="1157" y="986.5">-dealer: Usuario</text></g></g><g transform="translate(-398,-21) scale(1,1)"><g><path fill="none" stroke="none"/><text fill="#000000" stroke="none" font-family="Arial" font-size="13px" font-style="normal" font-weight="normal" text-decoration="none" x="1157" y="1001.5">-etapa: Etapa</text></g></g><g transform="translate(-398,-21) scale(1,1)"><g><path fill="none" stroke="none"/><text fill="#000000" stroke="none" font-family="Arial" font-size="13px" font-style="normal" font-weight="normal" text-decoration="none" x="1157" y="1016.5">-allIn: Boolean = false</text></g></g><g transform="translate(-398,-21) scale(1,1)"><g><path fill="none" stroke="none"/><text fill="#000000" stroke="none" font-family="Arial" font-size="13px" font-style="normal" font-weight="normal" text-decoration="none" x="1157" y="1031.5">-poso: Int</text></g></g><g transform="translate(-398,-21) scale(1,1)"><g><path fill="none" stroke="none"/><text fill="#000000" stroke="none" font-family="Arial" font-size="13px" font-style="normal" font-weight="normal" text-decoration="none" x="1157" y="1054.5">+retirarse(jugador: Usuario)</text></g></g><g transform="translate(-398,-21) scale(1,1)"><g><path fill="none" stroke="none"/><text fill="#000000" stroke="none" font-family="Arial" font-size="13px" font-style="normal" font-weight="normal" text-decoration="none" x="1157" y="1069.5">+pasar(jugador: Usuario)</text></g></g><g transform="translate(-398,-21) scale(1,1)"><g><path fill="none" stroke="none"/><text fill="#000000" stroke="none" font-family="Arial" font-size="13px" font-style="normal" font-weight="normal" text-decoration="none" x="1157" y="1084.5">+igualar(jugador: Usuario)</text></g></g><g transform="translate(-398,-21) scale(1,1)"><g><path fill="none" stroke="none"/><text fill="#000000" stroke="none" font-family="Arial" font-size="13px" font-style="normal" font-weight="normal" text-decoration="none" x="1157" y="1099.5">+subir(jugador: Usuario, cantidadApostar: Int)</text></g></g><g transform="translate(-398,-21) scale(1,1)"><rect fill="#C0C0C0" stroke="none" x="742" y="311" width="272" height="205" opacity="0.2"/></g><g transform="translate(-398,-21) scale(1,1)"><rect fill="#ffffff" stroke="none" x="735" y="304" width="272" height="205"/></g><g transform="translate(-398,-21) scale(1,1)"><path fill="none" stroke="#000000" d="M 735 304 L 1007 304 L 1007 509 L 735 509 L 735 304 Z Z" stroke-miterlimit="10"/></g><g transform="translate(-398,-21) scale(1,1)"><path fill="none" stroke="#000000" d="M 735 329 L 1007 329" stroke-miterlimit="10"/></g><g transform="translate(-398,-21) scale(1,1)"><path fill="none" stroke="#000000" d="M 735 442 L 1007 442" stroke-miterlimit="10"/></g><g transform="translate(-398,-21) scale(1,1)"><g><path fill="none" stroke="none"/><text fill="#000000" stroke="none" font-family="Arial" font-size="13px" font-style="normal" font-weight="bold" text-decoration="none" x="841.365966796875" y="323.5">salaJuego</text></g></g><g transform="translate(-398,-21) scale(1,1)"><g><path fill="none" stroke="none"/><text fill="#000000" stroke="none" font-family="Arial" font-size="13px" font-style="normal" font-weight="normal" text-decoration="none" x="740" y="346.5">#capacidad: Int = 1</text></g></g><g transform="translate(-398,-21) scale(1,1)"><g><path fill="none" stroke="none"/><text fill="#000000" stroke="none" font-family="Arial" font-size="13px" font-style="normal" font-weight="normal" text-decoration="none" x="740" y="361.5">#capasidadMinimima: Int = 1</text></g></g><g transform="translate(-398,-21) scale(1,1)"><g><path fill="none" stroke="none"/><text fill="#000000" stroke="none" font-family="Arial" font-size="13px" font-style="normal" font-weight="normal" text-decoration="none" x="740" y="376.5">#jugadores: Usuario[capacidad]</text></g></g><g transform="translate(-398,-21) scale(1,1)"><g><path fill="none" stroke="none"/><text fill="#000000" stroke="none" font-family="Arial" font-size="13px" font-style="normal" font-weight="normal" text-decoration="none" x="740" y="391.5">#fechaPartida: Date</text></g></g><g transform="translate(-398,-21) scale(1,1)"><g><path fill="none" stroke="none"/><text fill="#000000" stroke="none" font-family="Arial" font-size="13px" font-style="normal" font-weight="normal" text-decoration="none" x="740" y="406.5">#horaInicio: Date</text></g></g><g transform="translate(-398,-21) scale(1,1)"><g><path fill="none" stroke="none"/><text fill="#000000" stroke="none" font-family="Arial" font-size="13px" font-style="normal" font-weight="normal" text-decoration="none" x="740" y="421.5">#horaFin: Date</text></g></g><g transform="translate(-398,-21) scale(1,1)"><g><path fill="none" stroke="none"/><text fill="#000000" stroke="none" font-family="Arial" font-size="13px" font-style="normal" font-weight="normal" text-decoration="none" x="740" y="436.5">#turnoActivo: Usuario</text></g></g><g transform="translate(-398,-21) scale(1,1)"><g><path fill="none" stroke="none"/><text fill="#000000" stroke="none" font-family="Arial" font-size="13px" font-style="normal" font-weight="normal" text-decoration="none" x="740" y="459.5">+iniciarJuego(juego: Juegos)</text></g></g><g transform="translate(-398,-21) scale(1,1)"><g><path fill="none" stroke="none"/><text fill="#000000" stroke="none" font-family="Arial" font-size="13px" font-style="normal" font-weight="normal" text-decoration="none" x="740" y="474.5">+entrarSalaJuego(jugador: Usuario)</text></g></g><g transform="translate(-398,-21) scale(1,1)"><g><path fill="none" stroke="none"/><text fill="#000000" stroke="none" font-family="Arial" font-size="13px" font-style="normal" font-weight="normal" text-decoration="none" x="740" y="489.5">+salirSalaJuego(jugador: Usuario)</text></g></g><g transform="translate(-398,-21) scale(1,1)"><rect fill="#C0C0C0" stroke="none" x="743" y="727" width="286.849609375" height="160" opacity="0.2"/></g><g transform="translate(-398,-21) scale(1,1)"><rect fill="#ffffff" stroke="none" x="736" y="720" width="286.849609375" height="160"/></g><g transform="translate(-398,-21) scale(1,1)"><path fill="none" stroke="#000000" d="M 736 720 L 1022.849609375 720 L 1022.849609375 880 L 736 880 L 736 720 Z Z" stroke-miterlimit="10"/></g><g transform="translate(-398,-21) scale(1,1)"><path fill="none" stroke="#000000" d="M 736 745 L 1022.849609375 745" stroke-miterlimit="10"/></g><g transform="translate(-398,-21) scale(1,1)"><path fill="none" stroke="#000000" d="M 736 828 L 1022.849609375 828" stroke-miterlimit="10"/></g><g transform="translate(-398,-21) scale(1,1)"><g><path fill="none" stroke="none"/><text fill="#000000" stroke="none" font-family="Arial" font-size="13px" font-style="italic" font-weight="bold" text-decoration="none" x="834.26123046875" y="739.5">JuegoDeCartas</text></g></g><g transform="translate(-398,-21) scale(1,1)"><g><path fill="none" stroke="none"/><text fill="#000000" stroke="none" font-family="Arial" font-size="13px" font-style="normal" font-weight="normal" text-decoration="none" x="741" y="762.5">#mazo: Mazo</text></g></g><g transform="translate(-398,-21) scale(1,1)"><g><path fill="none" stroke="none"/><text fill="#000000" stroke="none" font-family="Arial" font-size="13px" font-style="normal" font-weight="normal" text-decoration="none" x="741" y="777.5">#motoDescartes: Carta</text></g></g><g transform="translate(-398,-21) scale(1,1)"><g><path fill="none" stroke="none"/><text fill="#000000" stroke="none" font-family="Arial" font-size="13px" font-style="normal" font-weight="normal" text-decoration="none" x="741" y="792.5">#baseMesa</text></g></g><g transform="translate(-398,-21) scale(1,1)"><g><path fill="none" stroke="none"/><text fill="#000000" stroke="none" font-family="Arial" font-size="13px" font-style="normal" font-weight="normal" text-decoration="none" x="741" y="807.5">#apuestas: Long[7]</text></g></g><g transform="translate(-398,-21) scale(1,1)"><g><path fill="none" stroke="none"/><text fill="#000000" stroke="none" font-family="Arial" font-size="13px" font-style="normal" font-weight="normal" text-decoration="none" x="741" y="822.5">#manoJugadores: Carta[7]</text></g></g><g transform="translate(-398,-21) scale(1,1)"><g><path fill="none" stroke="none"/><text fill="#000000" stroke="none" font-family="Arial" font-size="13px" font-style="italic" font-weight="normal" text-decoration="none" x="741" y="845.5">+repartirCartas()</text></g></g><g transform="translate(-398,-21) scale(1,1)"><g><path fill="none" stroke="none"/><text fill="#000000" stroke="none" font-family="Arial" font-size="13px" font-style="italic" font-weight="normal" text-decoration="none" x="741" y="860.5">+pagarApuesta(jugador: Usuario)</text></g></g><g transform="translate(-398,-21) scale(1,1)"><g><path fill="none" stroke="none"/><text fill="#000000" stroke="none" font-family="Arial" font-size="13px" font-style="italic" font-weight="normal" text-decoration="none" x="741" y="875.5">+apostar(jugador: Usuario, cantidadApostar: Int)</text></g></g><g transform="translate(-398,-21) scale(1,1)"><path fill="none" stroke="#000000" d="M 1288 745 L 1288 832 L 1023 832" stroke-miterlimit="10"/></g><g transform="translate(-398,-21) scale(1,1)"><path fill="#FFFFFF" stroke="none" d="M 1043.3253497152482 823.580964487968 L 1023 832 L 1043.3253497152482 840.419035512032"/></g><g transform="translate(-398,-21) scale(1,1)"><path fill="none" stroke="#000000" d="M 1043.3253497152482 823.580964487968 L 1023 832 L 1043.3253497152482 840.419035512032 L 1043.3253497152482 823.580964487968" stroke-miterlimit="10"/></g><g transform="translate(-398,-21) scale(1,1)"><path fill="none" stroke="#000000" d="M 1287 944 L 1287 832 L 1023 832" stroke-miterlimit="10"/></g><g transform="translate(-398,-21) scale(1,1)"><path fill="#FFFFFF" stroke="none" d="M 1043.3253497152482 823.580964487968 L 1023 832 L 1043.3253497152482 840.419035512032"/></g><g transform="translate(-398,-21) scale(1,1)"><path fill="none" stroke="#000000" d="M 1043.3253497152482 823.580964487968 L 1023 832 L 1043.3253497152482 840.419035512032 L 1043.3253497152482 823.580964487968" stroke-miterlimit="10"/></g><g transform="translate(-398,-21) scale(1,1)"><path fill="none" stroke="#000000" d="M 868 720 L 868 509" stroke-miterlimit="10"/></g><g transform="translate(-398,-21) scale(1,1)"><path fill="#FFFFFF" stroke="none" d="M 876.419035512032 529.3253497152483 L 868 509 L 859.580964487968 529.3253497152483"/></g><g transform="translate(-398,-21) scale(1,1)"><path fill="none" stroke="#000000" d="M 876.419035512032 529.3253497152483 L 868 509 L 859.580964487968 529.3253497152483 L 876.419035512032 529.3253497152483" stroke-miterlimit="10"/></g><g transform="translate(-398,-21) scale(1,1)"><path fill="none" stroke="#000000" d="M 667 409 L 735 409" stroke-miterlimit="10"/></g><g transform="translate(-398,-21) scale(1,1)"><path fill="none" stroke="#000000" d="M 724.8373251423759 413.209517756016 L 735 409 L 724.8373251423758 404.790482243984" stroke-miterlimit="10"/></g><g transform="translate(-398,-21) scale(1,1)"><path fill="none" stroke="#000000" d="M 864 1040 L 864 880" stroke-miterlimit="10"/></g><g transform="translate(-398,-21) scale(1,1)"><path fill="none" stroke="#000000" d="M 868.209517756016 890.1626748576241 L 864 880 L 859.790482243984 890.1626748576241" stroke-miterlimit="10"/></g><g transform="translate(-398,-21) scale(1,1)"><rect fill="#C0C0C0" stroke="none" x="583" y="935" width="128" height="96" opacity="0.2"/></g><g transform="translate(-398,-21) scale(1,1)"><rect fill="#ffffff" stroke="none" x="576" y="928" width="128" height="96"/></g><g transform="translate(-398,-21) scale(1,1)"><path fill="none" stroke="#000000" d="M 576 928 L 704 928 L 704 1024 L 576 1024 L 576 928 Z Z" stroke-miterlimit="10"/></g><g transform="translate(-398,-21) scale(1,1)"><path fill="none" stroke="#000000" d="M 576 953 L 704 953" stroke-miterlimit="10"/></g><g transform="translate(-398,-21) scale(1,1)"><path fill="none" stroke="#000000" d="M 576 991 L 704 991" stroke-miterlimit="10"/></g><g transform="translate(-398,-21) scale(1,1)"><g><path fill="none" stroke="none"/><text fill="#000000" stroke="none" font-family="Arial" font-size="13px" font-style="normal" font-weight="bold" text-decoration="none" x="624.10546875" y="947.5">Carta</text></g></g><g transform="translate(-398,-21) scale(1,1)"><g><path fill="none" stroke="none"/><text fill="#000000" stroke="none" font-family="Arial" font-size="13px" font-style="normal" font-weight="normal" text-decoration="none" x="581" y="970.5">-pinta: Pinta</text></g></g><g transform="translate(-398,-21) scale(1,1)"><g><path fill="none" stroke="none"/><text fill="#000000" stroke="none" font-family="Arial" font-size="13px" font-style="normal" font-weight="normal" text-decoration="none" x="581" y="985.5">-numeroLetra: Char</text></g></g><g transform="translate(-398,-21) scale(1,1)"><g><path fill="none" stroke="none"/><text fill="#000000" stroke="none" font-family="Arial" font-size="13px" font-style="normal" font-weight="normal" text-decoration="none" x="581" y="1008.5">+obtenerCarta()</text></g></g><g transform="translate(-398,-21) scale(1,1)"><rect fill="#C0C0C0" stroke="none" x="591" y="735" width="128" height="128" opacity="0.2"/></g><g transform="translate(-398,-21) scale(1,1)"><rect fill="#ffffff" stroke="none" x="584" y="728" width="128" height="128"/></g><g transform="translate(-398,-21) scale(1,1)"><path fill="none" stroke="#000000" d="M 584 728 L 712 728 L 712 856 L 584 856 L 584 728 Z Z" stroke-miterlimit="10"/></g><g transform="translate(-398,-21) scale(1,1)"><path fill="none" stroke="#000000" d="M 584 766 L 712 766" stroke-miterlimit="10"/></g><g transform="translate(-398,-21) scale(1,1)"><g><path fill="none" stroke="none"/><text fill="#000000" stroke="none" font-family="Arial" font-size="13px" font-style="normal" font-weight="normal" text-decoration="none" x="604.635986328125" y="745.5">«enumeration»</text></g></g><g transform="translate(-398,-21) scale(1,1)"><g><path fill="none" stroke="none"/><text fill="#000000" stroke="none" font-family="Arial" font-size="13px" font-style="normal" font-weight="bold" text-decoration="none" x="633.1845703125" y="760.5">Pinta</text></g></g><g transform="translate(-398,-21) scale(1,1)"><g><path fill="none" stroke="none"/><text fill="#000000" stroke="none" font-family="Arial" font-size="13px" font-style="normal" font-weight="normal" text-decoration="none" x="589" y="783.5">CORAZONES</text></g></g><g transform="translate(-398,-21) scale(1,1)"><g><path fill="none" stroke="none"/><text fill="#000000" stroke="none" font-family="Arial" font-size="13px" font-style="normal" font-weight="normal" text-decoration="none" x="589" y="798.5">PICAS</text></g></g><g transform="translate(-398,-21) scale(1,1)"><g><path fill="none" stroke="none"/><text fill="#000000" stroke="none" font-family="Arial" font-size="13px" font-style="normal" font-weight="normal" text-decoration="none" x="589" y="813.5">DIAMANTES</text></g></g><g transform="translate(-398,-21) scale(1,1)"><g><path fill="none" stroke="none"/><text fill="#000000" stroke="none" font-family="Arial" font-size="13px" font-style="normal" font-weight="normal" text-decoration="none" x="589" y="828.5">TREBOL</text></g></g><g transform="translate(-398,-21) scale(1,1)"><path fill="none" stroke="#000000" d="M 656 1024 L 656 1096 L 800 1096" stroke-miterlimit="10"/></g><g transform="translate(-398,-21) scale(1,1)"><path fill="none" stroke="#000000" d="M 789.8373251423759 1100.2095177560159 L 800 1096 L 789.8373251423758 1091.7904822439841" stroke-miterlimit="10"/></g><g transform="translate(-398,-21) scale(1,1)"><rect fill="#C0C0C0" stroke="none" x="1559" y="967" width="95.72802734375" height="128" opacity="0.2"/></g><g transform="translate(-398,-21) scale(1,1)"><rect fill="#ffffff" stroke="none" x="1552" y="960" width="95.72802734375" height="128"/></g><g transform="translate(-398,-21) scale(1,1)"><path fill="none" stroke="#000000" d="M 1552 960 L 1647.72802734375 960 L 1647.72802734375 1088 L 1552 1088 L 1552 960 Z Z" stroke-miterlimit="10"/></g><g transform="translate(-398,-21) scale(1,1)"><path fill="none" stroke="#000000" d="M 1552 998 L 1647.72802734375 998" stroke-miterlimit="10"/></g><g transform="translate(-398,-21) scale(1,1)"><g><path fill="none" stroke="none"/><text fill="#000000" stroke="none" font-family="Arial" font-size="13px" font-style="normal" font-weight="normal" text-decoration="none" x="1556.5" y="977.5">«enumeration»</text></g></g><g transform="translate(-398,-21) scale(1,1)"><g><path fill="none" stroke="none"/><text fill="#000000" stroke="none" font-family="Arial" font-size="13px" font-style="normal" font-weight="bold" text-decoration="none" x="1582.877685546875" y="992.5">Etapa</text></g></g><g transform="translate(-398,-21) scale(1,1)"><g><path fill="none" stroke="none"/><text fill="#000000" stroke="none" font-family="Arial" font-size="13px" font-style="normal" font-weight="normal" text-decoration="none" x="1557" y="1015.5">PRE_FLOP</text></g></g><g transform="translate(-398,-21) scale(1,1)"><g><path fill="none" stroke="none"/><text fill="#000000" stroke="none" font-family="Arial" font-size="13px" font-style="normal" font-weight="normal" text-decoration="none" x="1557" y="1030.5">FLOP</text></g></g><g transform="translate(-398,-21) scale(1,1)"><g><path fill="none" stroke="none"/><text fill="#000000" stroke="none" font-family="Arial" font-size="13px" font-style="normal" font-weight="normal" text-decoration="none" x="1557" y="1045.5">TURN</text></g></g><g transform="translate(-398,-21) scale(1,1)"><g><path fill="none" stroke="none"/><text fill="#000000" stroke="none" font-family="Arial" font-size="13px" font-style="normal" font-weight="normal" text-decoration="none" x="1557" y="1060.5">RIVER</text></g></g><g transform="translate(-398,-21) scale(1,1)"><g><path fill="none" stroke="none"/><text fill="#000000" stroke="none" font-family="Arial" font-size="13px" font-style="normal" font-weight="normal" text-decoration="none" x="1557" y="1075.5">SHOWDOWN</text></g></g><g transform="translate(-398,-21) scale(1,1)"><path fill="none" stroke="#000000" d="M 648 856 L 648 928" stroke-miterlimit="10"/></g><g transform="translate(-398,-21) scale(1,1)"><path fill="none" stroke="#000000" d="M 643.790482243984 917.8373251423759 L 648 928 L 652.209517756016 917.8373251423759" stroke-miterlimit="10"/></g><g transform="translate(-398,-21) scale(1,1)"><path fill="none" stroke="#000000" d="M 1552 1024 L 1424 1024" stroke-miterlimit="10"/></g><g transform="translate(-398,-21) scale(1,1)"><path fill="none" stroke="#000000" d="M 1434.162674857624 1019.790482243984 L 1424 1024 L 1434.162674857624 1028.2095177560159" stroke-miterlimit="10"/></g><g transform="translate(-398,-21) scale(1,1)"><rect fill="#C0C0C0" stroke="none" x="1823" y="231" width="70.40000000000009" height="15" opacity="0.2"/></g><g transform="translate(-398,-21) scale(1,1)"><rect fill="#C0C0C0" stroke="none" x="1823" y="245" width="176" height="66" opacity="0.2"/></g><g transform="translate(-398,-21) scale(1,1)"><rect fill="#ffffff" stroke="none" x="1816" y="239" width="176" height="65"/></g><g transform="translate(-398,-21) scale(1,1)"><path fill="none" stroke="#000000" d="M 1816 239 L 1992 239 L 1992 304 L 1816 304 L 1816 239 Z Z" stroke-miterlimit="10"/></g><g transform="translate(-398,-21) scale(1,1)"><rect fill="#ffffff" stroke="none" x="1816" y="224" width="70.40000000000009" height="15"/></g><g transform="translate(-398,-21) scale(1,1)"><path fill="none" stroke="#000000" d="M 1816 224 L 1886.4 224 L 1886.4 239 L 1816 239 L 1816 224 Z Z" stroke-miterlimit="10"/></g><g transform="translate(-398,-21) scale(1,1)"><rect fill="#ffffff" stroke="none" x="1816" y="238" width="176" height="66"/></g><g transform="translate(-398,-21) scale(1,1)"><path fill="none" stroke="#000000" d="M 1816 238 L 1992 238 L 1992 304 L 1816 304 L 1816 238 Z Z" stroke-miterlimit="10"/></g><g transform="translate(-398,-21) scale(1,1)"><g><path fill="none" stroke="none"/><text fill="#000000" stroke="none" font-family="Arial" font-size="13px" font-style="normal" font-weight="bold" text-decoration="none" x="1887.740478515625" y="258.5">poker</text></g></g><g transform="translate(-398,-21) scale(1,1)"><g><path fill="none" stroke="none"/><text fill="#000000" stroke="none" font-family="Arial" font-size="13px" font-style="normal" font-weight="normal" text-decoration="none" x="1841.50732421875" y="273.5">(from juegoDeCartas)</text></g></g><g transform="translate(-398,-21) scale(1,1)"><rect fill="#C0C0C0" stroke="none" x="1823" y="327" width="70.40000000000009" height="15" opacity="0.2"/></g><g transform="translate(-398,-21) scale(1,1)"><rect fill="#C0C0C0" stroke="none" x="1823" y="341" width="176" height="66" opacity="0.2"/></g><g transform="translate(-398,-21) scale(1,1)"><rect fill="#ffffff" stroke="none" x="1816" y="335" width="176" height="65"/></g><g transform="translate(-398,-21) scale(1,1)"><path fill="none" stroke="#000000" d="M 1816 335 L 1992 335 L 1992 400 L 1816 400 L 1816 335 Z Z" stroke-miterlimit="10"/></g><g transform="translate(-398,-21) scale(1,1)"><rect fill="#ffffff" stroke="none" x="1816" y="320" width="70.40000000000009" height="15"/></g><g transform="translate(-398,-21) scale(1,1)"><path fill="none" stroke="#000000" d="M 1816 320 L 1886.4 320 L 1886.4 335 L 1816 335 L 1816 320 Z Z" stroke-miterlimit="10"/></g><g transform="translate(-398,-21) scale(1,1)"><rect fill="#ffffff" stroke="none" x="1816" y="334" width="176" height="66"/></g><g transform="translate(-398,-21) scale(1,1)"><path fill="none" stroke="#000000" d="M 1816 334 L 1992 334 L 1992 400 L 1816 400 L 1816 334 Z Z" stroke-miterlimit="10"/></g><g transform="translate(-398,-21) scale(1,1)"><g><path fill="none" stroke="none"/><text fill="#000000" stroke="none" font-family="Arial" font-size="13px" font-style="normal" font-weight="bold" text-decoration="none" x="1888.10546875" y="354.5">mazo</text></g></g><g transform="translate(-398,-21) scale(1,1)"><g><path fill="none" stroke="none"/><text fill="#000000" stroke="none" font-family="Arial" font-size="13px" font-style="normal" font-weight="normal" text-decoration="none" x="1841.50732421875" y="369.5">(from juegoDeCartas)</text></g></g><g transform="translate(-398,-21) scale(1,1)"><rect fill="#C0C0C0" stroke="none" x="1823" y="431" width="70.40000000000009" height="15" opacity="0.2"/></g><g transform="translate(-398,-21) scale(1,1)"><rect fill="#C0C0C0" stroke="none" x="1823" y="445" width="176" height="66" opacity="0.2"/></g><g transform="translate(-398,-21) scale(1,1)"><rect fill="#ffffff" stroke="none" x="1816" y="439" width="176" height="65"/></g><g transform="translate(-398,-21) scale(1,1)"><path fill="none" stroke="#000000" d="M 1816 439 L 1992 439 L 1992 504 L 1816 504 L 1816 439 Z Z" stroke-miterlimit="10"/></g><g transform="translate(-398,-21) scale(1,1)"><rect fill="#ffffff" stroke="none" x="1816" y="424" width="70.40000000000009" height="15"/></g><g transform="translate(-398,-21) scale(1,1)"><path fill="none" stroke="#000000" d="M 1816 424 L 1886.4 424 L 1886.4 439 L 1816 439 L 1816 424 Z Z" stroke-miterlimit="10"/></g><g transform="translate(-398,-21) scale(1,1)"><rect fill="#ffffff" stroke="none" x="1816" y="438" width="176" height="66"/></g><g transform="translate(-398,-21) scale(1,1)"><path fill="none" stroke="#000000" d="M 1816 438 L 1992 438 L 1992 504 L 1816 504 L 1816 438 Z Z" stroke-miterlimit="10"/></g><g transform="translate(-398,-21) scale(1,1)"><g><path fill="none" stroke="none"/><text fill="#000000" stroke="none" font-family="Arial" font-size="13px" font-style="normal" font-weight="bold" text-decoration="none" x="1889.549560546875" y="458.5">carta</text></g></g><g transform="translate(-398,-21) scale(1,1)"><g><path fill="none" stroke="none"/><text fill="#000000" stroke="none" font-family="Arial" font-size="13px" font-style="normal" font-weight="normal" text-decoration="none" x="1841.50732421875" y="473.5">(from juegoDeCartas)</text></g></g><g transform="translate(-398,-21) scale(1,1)"><rect fill="#C0C0C0" stroke="none" x="1823" y="135" width="70.40000000000009" height="15" opacity="0.2"/></g><g transform="translate(-398,-21) scale(1,1)"><rect fill="#C0C0C0" stroke="none" x="1823" y="149" width="176" height="58" opacity="0.2"/></g><g transform="translate(-398,-21) scale(1,1)"><rect fill="#ffffff" stroke="none" x="1816" y="143" width="176" height="57"/></g><g transform="translate(-398,-21) scale(1,1)"><path fill="none" stroke="#000000" d="M 1816 143 L 1992 143 L 1992 200 L 1816 200 L 1816 143 Z Z" stroke-miterlimit="10"/></g><g transform="translate(-398,-21) scale(1,1)"><rect fill="#ffffff" stroke="none" x="1816" y="128" width="70.40000000000009" height="15"/></g><g transform="translate(-398,-21) scale(1,1)"><path fill="none" stroke="#000000" d="M 1816 128 L 1886.4 128 L 1886.4 143 L 1816 143 L 1816 128 Z Z" stroke-miterlimit="10"/></g><g transform="translate(-398,-21) scale(1,1)"><rect fill="#ffffff" stroke="none" x="1816" y="142" width="176" height="58"/></g><g transform="translate(-398,-21) scale(1,1)"><path fill="none" stroke="#000000" d="M 1816 142 L 1992 142 L 1992 200 L 1816 200 L 1816 142 Z Z" stroke-miterlimit="10"/></g><g transform="translate(-398,-21) scale(1,1)"><path fill="none" stroke="#000000" d="M 1878.4 131 L 1878.4 135" stroke-miterlimit="10"/></g><g transform="translate(-398,-21) scale(1,1)"><path fill="none" stroke="#000000" d="M 1875.4 139 L 1875.4 135 L 1881.4 135" stroke-miterlimit="10"/></g><g transform="translate(-398,-21) scale(1,1)"><path fill="none" stroke="#000000" d="M 1881.4 139 L 1881.4 135 L 1875.4 135" stroke-miterlimit="10"/></g><g transform="translate(-398,-21) scale(1,1)"><g><path fill="none" stroke="none"/><text fill="#000000" stroke="none" font-family="Arial" font-size="13px" font-style="normal" font-weight="bold" text-decoration="none" x="1860.642333984375" y="162.5">juegoDeCartas</text></g></g><g transform="translate(-398,-21) scale(1,1)"><g><path fill="none" stroke="none"/><text fill="#000000" stroke="none" font-family="Arial" font-size="13px" font-style="normal" font-weight="normal" text-decoration="none" x="1868.9609375" y="177.5">(from juego)</text></g></g><g transform="translate(-398,-21) scale(1,1)"><rect fill="#C0C0C0" stroke="none" x="415" y="127" width="281.0478515625" height="128" opacity="0.2"/></g><g transform="translate(-398,-21) scale(1,1)"><rect fill="#ffffff" stroke="none" x="408" y="120" width="281.0478515625" height="128"/></g><g transform="translate(-398,-21) scale(1,1)"><path fill="none" stroke="#000000" d="M 408 120 L 689.0478515625 120 L 689.0478515625 248 L 408 248 L 408 120 Z Z" stroke-miterlimit="10"/></g><g transform="translate(-398,-21) scale(1,1)"><path fill="none" stroke="#000000" d="M 408 145 L 689.0478515625 145" stroke-miterlimit="10"/></g><g transform="translate(-398,-21) scale(1,1)"><path fill="none" stroke="#000000" d="M 408 155 L 689.0478515625 155" stroke-miterlimit="10"/></g><g transform="translate(-398,-21) scale(1,1)"><g><path fill="none" stroke="none"/><text fill="#000000" stroke="none" font-family="Arial" font-size="13px" font-style="normal" font-weight="bold" text-decoration="none" x="503.008056640625" y="139.5">UsuarioServicio</text></g></g><g transform="translate(-398,-21) scale(1,1)"><g><path fill="none" stroke="none"/><text fill="#000000" stroke="none" font-family="Arial" font-size="13px" font-style="normal" font-weight="normal" text-decoration="none" x="413" y="172.5">+agregarJugador(usuario: Usuario)</text></g></g><g transform="translate(-398,-21) scale(1,1)"><g><path fill="none" stroke="none"/><text fill="#000000" stroke="none" font-family="Arial" font-size="13px" font-style="normal" font-weight="normal" text-decoration="none" x="413" y="187.5">+removerJugador(id: String)</text></g></g><g transform="translate(-398,-21) scale(1,1)"><g><path fill="none" stroke="none"/><text fill="#000000" stroke="none" font-family="Arial" font-size="13px" font-style="normal" font-weight="normal" text-decoration="none" x="413" y="202.5">+obtenerJugador(id: String)</text></g></g><g transform="translate(-398,-21) scale(1,1)"><g><path fill="none" stroke="none"/><text fill="#000000" stroke="none" font-family="Arial" font-size="13px" font-style="normal" font-weight="normal" text-decoration="none" x="413" y="217.5">+actualizarJugador(id: String, usuario: Usuario)</text></g></g><g transform="translate(-398,-21) scale(1,1)"><rect fill="#C0C0C0" stroke="none" x="791" y="111" width="153.142578125" height="145" opacity="0.2"/></g><g transform="translate(-398,-21) scale(1,1)"><rect fill="#ffffff" stroke="none" x="784" y="104" width="153.142578125" height="145"/></g><g transform="translate(-398,-21) scale(1,1)"><path fill="none" stroke="#000000" d="M 784 104 L 937.142578125 104 L 937.142578125 249 L 784 249 L 784 104 Z Z" stroke-miterlimit="10"/></g><g transform="translate(-398,-21) scale(1,1)"><path fill="none" stroke="#000000" d="M 784 129 L 937.142578125 129" stroke-miterlimit="10"/></g><g transform="translate(-398,-21) scale(1,1)"><path fill="none" stroke="#000000" d="M 784 152 L 937.142578125 152" stroke-miterlimit="10"/></g><g transform="translate(-398,-21) scale(1,1)"><g><path fill="none" stroke="none"/><text fill="#000000" stroke="none" font-family="Arial" font-size="13px" font-style="normal" font-weight="bold" text-decoration="none" x="806.375" y="123.5">CasinoControlador</text></g></g><g transform="translate(-398,-21) scale(1,1)"><g><path fill="none" stroke="none"/><text fill="#000000" stroke="none" font-family="Arial" font-size="13px" font-style="normal" font-weight="normal" text-decoration="none" x="789" y="146.5">+registro</text></g></g><g transform="translate(-398,-21) scale(1,1)"><g><path fill="none" stroke="none"/><text fill="#000000" stroke="none" font-family="Arial" font-size="13px" font-style="normal" font-weight="normal" text-decoration="none" x="789" y="169.5">+inciarCasino()</text></g></g><g transform="translate(-398,-21) scale(1,1)"><g><path fill="none" stroke="none"/><text fill="#000000" stroke="none" font-family="Arial" font-size="13px" font-style="normal" font-weight="normal" text-decoration="none" x="789" y="184.5">+crearSala()</text></g></g><g transform="translate(-398,-21) scale(1,1)"><g><path fill="none" stroke="none"/><text fill="#000000" stroke="none" font-family="Arial" font-size="13px" font-style="normal" font-weight="normal" text-decoration="none" x="789" y="199.5">+guardarDatos()</text></g></g><g transform="translate(-398,-21) scale(1,1)"><g><path fill="none" stroke="none"/><text fill="#000000" stroke="none" font-family="Arial" font-size="13px" font-style="normal" font-weight="normal" text-decoration="none" x="789" y="214.5">+cargarDatos()</text></g></g><g transform="translate(-398,-21) scale(1,1)"><g><path fill="none" stroke="none"/><text fill="#000000" stroke="none" font-family="Arial" font-size="13px" font-style="normal" font-weight="normal" text-decoration="none" x="789" y="229.5">+salirCasino()</text></g></g><g transform="translate(-398,-21) scale(1,1)"><rect fill="#C0C0C0" stroke="none" x="1599" y="38" width="73.59999999999991" height="15" opacity="0.2"/></g><g transform="translate(-398,-21) scale(1,1)"><rect fill="#C0C0C0" stroke="none" x="1599" y="52" width="184" height="66" opacity="0.2"/></g><g transform="translate(-398,-21) scale(1,1)"><rect fill="#ffffff" stroke="none" x="1592" y="46" width="184" height="65"/></g><g transform="translate(-398,-21) scale(1,1)"><path fill="none" stroke="#000000" d="M 1592 46 L 1776 46 L 1776 111 L 1592 111 L 1592 46 Z Z" stroke-miterlimit="10"/></g><g transform="translate(-398,-21) scale(1,1)"><rect fill="#ffffff" stroke="none" x="1592" y="31" width="73.59999999999991" height="15"/></g><g transform="translate(-398,-21) scale(1,1)"><path fill="none" stroke="#000000" d="M 1592 31 L 1665.6 31 L 1665.6 46 L 1592 46 L 1592 31 Z Z" stroke-miterlimit="10"/></g><g transform="translate(-398,-21) scale(1,1)"><rect fill="#ffffff" stroke="none" x="1592" y="45" width="184" height="66"/></g><g transform="translate(-398,-21) scale(1,1)"><path fill="none" stroke="#000000" d="M 1592 45 L 1776 45 L 1776 111 L 1592 111 L 1592 45 Z Z" stroke-miterlimit="10"/></g><g transform="translate(-398,-21) scale(1,1)"><path fill="none" stroke="#000000" d="M 1657.6 34 L 1657.6 38" stroke-miterlimit="10"/></g><g transform="translate(-398,-21) scale(1,1)"><path fill="none" stroke="#000000" d="M 1654.6 42 L 1654.6 38 L 1660.6 38" stroke-miterlimit="10"/></g><g transform="translate(-398,-21) scale(1,1)"><path fill="none" stroke="#000000" d="M 1660.6 42 L 1660.6 38 L 1654.6 38" stroke-miterlimit="10"/></g><g transform="translate(-398,-21) scale(1,1)"><g><path fill="none" stroke="none"/><text fill="#000000" stroke="none" font-family="Arial" font-size="13px" font-style="normal" font-weight="bold" text-decoration="none" x="1661.602294921875" y="65.5">Usuario</text></g></g><g transform="translate(-398,-21) scale(1,1)"><g><path fill="none" stroke="none"/><text fill="#000000" stroke="none" font-family="Arial" font-size="13px" font-style="normal" font-weight="normal" text-decoration="none" x="1647.161376953125" y="80.5">(from Model)</text></g></g><g transform="translate(-398,-21) scale(1,1)"><rect fill="#C0C0C0" stroke="none" x="1823" y="38" width="73.59999999999991" height="15" opacity="0.2"/></g><g transform="translate(-398,-21) scale(1,1)"><rect fill="#C0C0C0" stroke="none" x="1823" y="52" width="184" height="66" opacity="0.2"/></g><g transform="translate(-398,-21) scale(1,1)"><rect fill="#ffffff" stroke="none" x="1816" y="46" width="184" height="65"/></g><g transform="translate(-398,-21) scale(1,1)"><path fill="none" stroke="#000000" d="M 1816 46 L 2000 46 L 2000 111 L 1816 111 L 1816 46 Z Z" stroke-miterlimit="10"/></g><g transform="translate(-398,-21) scale(1,1)"><rect fill="#ffffff" stroke="none" x="1816" y="31" width="73.59999999999991" height="15"/></g><g transform="translate(-398,-21) scale(1,1)"><path fill="none" stroke="#000000" d="M 1816 31 L 1889.6 31 L 1889.6 46 L 1816 46 L 1816 31 Z Z" stroke-miterlimit="10"/></g><g transform="translate(-398,-21) scale(1,1)"><rect fill="#ffffff" stroke="none" x="1816" y="45" width="184" height="66"/></g><g transform="translate(-398,-21) scale(1,1)"><path fill="none" stroke="#000000" d="M 1816 45 L 2000 45 L 2000 111 L 1816 111 L 1816 45 Z Z" stroke-miterlimit="10"/></g><g transform="translate(-398,-21) scale(1,1)"><path fill="none" stroke="#000000" d="M 1881.6 34 L 1881.6 38" stroke-miterlimit="10"/></g><g transform="translate(-398,-21) scale(1,1)"><path fill="none" stroke="#000000" d="M 1878.6 42 L 1878.6 38 L 1884.6 38" stroke-miterlimit="10"/></g><g transform="translate(-398,-21) scale(1,1)"><path fill="none" stroke="#000000" d="M 1884.6 42 L 1884.6 38 L 1878.6 38" stroke-miterlimit="10"/></g><g transform="translate(-398,-21) scale(1,1)"><g><path fill="none" stroke="none"/><text fill="#000000" stroke="none" font-family="Arial" font-size="13px" font-style="normal" font-weight="bold" text-decoration="none" x="1892.095947265625" y="65.5">juego</text></g></g><g transform="translate(-398,-21) scale(1,1)"><g><path fill="none" stroke="none"/><text fill="#000000" stroke="none" font-family="Arial" font-size="13px" font-style="normal" font-weight="normal" text-decoration="none" x="1871.161376953125" y="80.5">(from Model)</text></g></g><g transform="translate(-398,-21) scale(1,1)"><path fill="none" stroke="#000000" d="M 704 976 L 864 976 L 864 880" stroke-miterlimit="10"/></g><g transform="translate(-398,-21) scale(1,1)"><path fill="none" stroke="#000000" d="M 868.209517756016 890.1626748576241 L 864 880 L 859.790482243984 890.1626748576241" stroke-miterlimit="10"/></g><g transform="translate(-398,-21) scale(1,1)"><path fill="none" stroke="#000000" d="M 545 248 L 545 320" stroke-miterlimit="10" stroke-dasharray="3"/></g><g transform="translate(-398,-21) scale(1,1)"><path fill="none" stroke="#000000" d="M 540.790482243984 309.83732514237585 L 545 320 L 549.209517756016 309.83732514237585" stroke-miterlimit="10"/></g><g transform="translate(-398,-21) scale(1,1)"><rect fill="#C0C0C0" stroke="none" x="1079" y="383" width="125.34619140625" height="75" opacity="0.2"/></g><g transform="translate(-398,-21) scale(1,1)"><rect fill="#ffffff" stroke="none" x="1072" y="376" width="125.34619140625" height="75"/></g><g transform="translate(-398,-21) scale(1,1)"><path fill="none" stroke="#000000" d="M 1072 376 L 1197.34619140625 376 L 1197.34619140625 451 L 1072 451 L 1072 376 Z Z" stroke-miterlimit="10"/></g><g transform="translate(-398,-21) scale(1,1)"><path fill="none" stroke="#000000" d="M 1072 414 L 1197.34619140625 414" stroke-miterlimit="10"/></g><g transform="translate(-398,-21) scale(1,1)"><g><path fill="none" stroke="none"/><text fill="#000000" stroke="none" font-family="Arial" font-size="13px" font-style="normal" font-weight="normal" text-decoration="none" x="1091.30908203125" y="393.5">«enumeration»</text></g></g><g transform="translate(-398,-21) scale(1,1)"><g><path fill="none" stroke="none"/><text fill="#000000" stroke="none" font-family="Arial" font-size="13px" font-style="normal" font-weight="bold" text-decoration="none" x="1113.713134765625" y="408.5">Juegos</text></g></g><g transform="translate(-398,-21) scale(1,1)"><g><path fill="none" stroke="none"/><text fill="#000000" stroke="none" font-family="Arial" font-size="13px" font-style="normal" font-weight="normal" text-decoration="none" x="1077" y="431.5">POKER</text></g></g><g transform="translate(-398,-21) scale(1,1)"><g><path fill="none" stroke="none"/><text fill="#000000" stroke="none" font-family="Arial" font-size="13px" font-style="normal" font-weight="normal" text-decoration="none" x="1077" y="446.5">BLACKJACK</text></g></g><g transform="translate(-398,-21) scale(1,1)"><path fill="none" stroke="#000000" d="M 1072 411 L 1007 411" stroke-miterlimit="10" stroke-dasharray="3"/></g><g transform="translate(-398,-21) scale(1,1)"><path fill="none" stroke="#000000" d="M 1017.1626748576241 406.790482243984 L 1007 411 L 1017.1626748576241 415.209517756016" stroke-miterlimit="10"/></g><g transform="translate(-398,-21) scale(1,1)"><path fill="none" stroke="#000000" d="M 874 249 L 874 304" stroke-miterlimit="10" stroke-dasharray="3"/></g><g transform="translate(-398,-21) scale(1,1)"><path fill="none" stroke="#000000" d="M 869.790482243984 293.83732514237585 L 874 304 L 878.209517756016 293.83732514237585" stroke-miterlimit="10"/></g><g transform="translate(-398,-21) scale(1,1)"><path fill="none" stroke="#000000" d="M 528 480 L 528 1176 L 1288 1176 L 1288 1121" stroke-miterlimit="10"/></g><g transform="translate(-398,-21) scale(1,1)"><path fill="none" stroke="#000000" d="M 1292.2095177560159 1131.162674857624 L 1288 1121 L 1283.7904822439841 1131.162674857624" stroke-miterlimit="10"/></g></g></svg>