<svg version="1.1" xmlns="http://www.w3.org/2000/svg" xmlns:xlink="http://www.w3.org/1999/xlink" width="1332" height="981"><defs/><g><g transform="translate(-102,10) scale(1,1)"><rect fill="#C0C0C0" stroke="none" x="415" y="327" width="259.38330078125" height="160" opacity="0.2"/></g><g transform="translate(-102,10) scale(1,1)"><rect fill="#ffffff" stroke="none" x="408" y="320" width="259.38330078125" height="160"/></g><g transform="translate(-102,10) scale(1,1)"><path fill="none" stroke="#000000" d="M 408 320 L 667.38330078125 320 L 667.38330078125 480 L 408 480 L 408 320 Z Z" stroke-miterlimit="10"/></g><g transform="translate(-102,10) scale(1,1)"><path fill="none" stroke="#000000" d="M 408 345 L 667.38330078125 345" stroke-miterlimit="10"/></g><g transform="translate(-102,10) scale(1,1)"><path fill="none" stroke="#000000" d="M 408 443 L 667.38330078125 443" stroke-miterlimit="10"/></g><g transform="translate(-102,10) scale(1,1)"><g><path fill="none" stroke="none"/><text fill="#000000" stroke="none" font-family="Arial" font-size="13px" font-style="normal" font-weight="bold" text-decoration="none" x="515.2939453125" y="339.5">Usuario</text></g></g><g transform="translate(-102,10) scale(1,1)"><g><path fill="none" stroke="none"/><text fill="#000000" stroke="none" font-family="Arial" font-size="13px" font-style="normal" font-weight="normal" text-decoration="none" x="413" y="362.5">-ID {id, unique}</text></g></g><g transform="translate(-102,10) scale(1,1)"><g><path fill="none" stroke="none"/><text fill="#000000" stroke="none" font-family="Arial" font-size="13px" font-style="normal" font-weight="normal" text-decoration="none" x="413" y="377.5">-nombre: String</text></g></g><g transform="translate(-102,10) scale(1,1)"><g><path fill="none" stroke="none"/><text fill="#000000" stroke="none" font-family="Arial" font-size="13px" font-style="normal" font-weight="normal" text-decoration="none" x="413" y="392.5">-apellido: String</text></g></g><g transform="translate(-102,10) scale(1,1)"><g><path fill="none" stroke="none"/><text fill="#000000" stroke="none" font-family="Arial" font-size="13px" font-style="normal" font-weight="normal" text-decoration="none" x="413" y="407.5">-saldo: Int = 0</text></g></g><g transform="translate(-102,10) scale(1,1)"><g><path fill="none" stroke="none"/><text fill="#000000" stroke="none" font-family="Arial" font-size="13px" font-style="normal" font-weight="normal" text-decoration="none" x="413" y="422.5">-totalApostodo: Int = 0</text></g></g><g transform="translate(-102,10) scale(1,1)"><g><path fill="none" stroke="none"/><text fill="#000000" stroke="none" font-family="Arial" font-size="13px" font-style="normal" font-weight="normal" text-decoration="none" x="413" y="437.5">-historial: Pila</text></g></g><g transform="translate(-102,10) scale(1,1)"><g><path fill="none" stroke="none"/><text fill="#000000" stroke="none" font-family="Arial" font-size="13px" font-style="normal" font-weight="normal" text-decoration="none" x="413" y="460.5">+generarId(nombre: String, apellido: String)</text></g></g><g transform="translate(-102,10) scale(1,1)"><rect fill="#C0C0C0" stroke="none" x="519" y="567" width="170.8525390625" height="128" opacity="0.2"/></g><g transform="translate(-102,10) scale(1,1)"><rect fill="#ffffff" stroke="none" x="512" y="560" width="170.8525390625" height="128"/></g><g transform="translate(-102,10) scale(1,1)"><path fill="none" stroke="#000000" d="M 512 560 L 682.8525390625 560 L 682.8525390625 688 L 512 688 L 512 560 Z Z" stroke-miterlimit="10"/></g><g transform="translate(-102,10) scale(1,1)"><path fill="none" stroke="#000000" d="M 512 585 L 682.8525390625 585" stroke-miterlimit="10"/></g><g transform="translate(-102,10) scale(1,1)"><path fill="none" stroke="#000000" d="M 512 623 L 682.8525390625 623" stroke-miterlimit="10"/></g><g transform="translate(-102,10) scale(1,1)"><g><path fill="none" stroke="none"/><text fill="#000000" stroke="none" font-family="Arial" font-size="13px" font-style="normal" font-weight="bold" text-decoration="none" x="581.53173828125" y="579.5">Mazo</text></g></g><g transform="translate(-102,10) scale(1,1)"><g><path fill="none" stroke="none"/><text fill="#000000" stroke="none" font-family="Arial" font-size="13px" font-style="normal" font-weight="normal" text-decoration="none" x="517" y="602.5">-tamanoMazo: Int = 52</text></g></g><g transform="translate(-102,10) scale(1,1)"><g><path fill="none" stroke="none"/><text fill="#000000" stroke="none" font-family="Arial" font-size="13px" font-style="normal" font-weight="normal" text-decoration="none" x="517" y="617.5">-baraja: Carta[tamañoMazo]</text></g></g><g transform="translate(-102,10) scale(1,1)"><g><path fill="none" stroke="none"/><text fill="#000000" stroke="none" font-family="Arial" font-size="13px" font-style="normal" font-weight="normal" text-decoration="none" x="517" y="640.5">+barajear()</text></g></g><g transform="translate(-102,10) scale(1,1)"><g><path fill="none" stroke="none"/><text fill="#000000" stroke="none" font-family="Arial" font-size="13px" font-style="normal" font-weight="normal" text-decoration="none" x="517" y="655.5">+sacarCarta()</text></g></g><g transform="translate(-102,10) scale(1,1)"><g><path fill="none" stroke="none"/><text fill="#000000" stroke="none" font-family="Arial" font-size="13px" font-style="normal" font-weight="normal" text-decoration="none" x="517" y="670.5">+ingresarCarta()</text></g></g><g transform="translate(-102,10) scale(1,1)"><rect fill="#C0C0C0" stroke="none" x="983" y="791" width="139.08251953125" height="177" opacity="0.2"/></g><g transform="translate(-102,10) scale(1,1)"><rect fill="#ffffff" stroke="none" x="976" y="784" width="139.08251953125" height="177"/></g><g transform="translate(-102,10) scale(1,1)"><path fill="none" stroke="#000000" d="M 976 784 L 1115.08251953125 784 L 1115.08251953125 961 L 976 961 L 976 784 Z Z" stroke-miterlimit="10"/></g><g transform="translate(-102,10) scale(1,1)"><path fill="none" stroke="#000000" d="M 976 809 L 1115.08251953125 809" stroke-miterlimit="10"/></g><g transform="translate(-102,10) scale(1,1)"><path fill="none" stroke="#000000" d="M 976 832 L 1115.08251953125 832" stroke-miterlimit="10"/></g><g transform="translate(-102,10) scale(1,1)"><g><path fill="none" stroke="none"/><text fill="#000000" stroke="none" font-family="Arial" font-size="13px" font-style="normal" font-weight="bold" text-decoration="none" x="1016.28173828125" y="803.5">BlackJack</text></g></g><g transform="translate(-102,10) scale(1,1)"><g><path fill="none" stroke="none"/><text fill="#000000" stroke="none" font-family="Arial" font-size="13px" font-style="normal" font-weight="normal" text-decoration="none" x="981" y="826.5">-seguro: Boolean</text></g></g><g transform="translate(-102,10) scale(1,1)"><g><path fill="none" stroke="none"/><text fill="#000000" stroke="none" font-family="Arial" font-size="13px" font-style="normal" font-weight="normal" text-decoration="none" x="981" y="849.5">+pedir()</text></g></g><g transform="translate(-102,10) scale(1,1)"><g><path fill="none" stroke="none"/><text fill="#000000" stroke="none" font-family="Arial" font-size="13px" font-style="normal" font-weight="normal" text-decoration="none" x="981" y="864.5">+plantarse()</text></g></g><g transform="translate(-102,10) scale(1,1)"><g><path fill="none" stroke="none"/><text fill="#000000" stroke="none" font-family="Arial" font-size="13px" font-style="normal" font-weight="normal" text-decoration="none" x="981" y="879.5">+doblar()</text></g></g><g transform="translate(-102,10) scale(1,1)"><g><path fill="none" stroke="none"/><text fill="#000000" stroke="none" font-family="Arial" font-size="13px" font-style="normal" font-weight="normal" text-decoration="none" x="981" y="894.5">+separar()</text></g></g><g transform="translate(-102,10) scale(1,1)"><g><path fill="none" stroke="none"/><text fill="#000000" stroke="none" font-family="Arial" font-size="13px" font-style="normal" font-weight="normal" text-decoration="none" x="981" y="909.5">+seguro()</text></g></g><g transform="translate(-102,10) scale(1,1)"><g><path fill="none" stroke="none"/><text fill="#000000" stroke="none" font-family="Arial" font-size="13px" font-style="normal" font-weight="normal" text-decoration="none" x="981" y="924.5">+retirarse()</text></g></g><g transform="translate(-102,10) scale(1,1)"><rect fill="#C0C0C0" stroke="none" x="615" y="791" width="143.0244140625" height="177" opacity="0.2"/></g><g transform="translate(-102,10) scale(1,1)"><rect fill="#ffffff" stroke="none" x="608" y="784" width="143.0244140625" height="177"/></g><g transform="translate(-102,10) scale(1,1)"><path fill="none" stroke="#000000" d="M 608 784 L 751.0244140625 784 L 751.0244140625 961 L 608 961 L 608 784 Z Z" stroke-miterlimit="10"/></g><g transform="translate(-102,10) scale(1,1)"><path fill="none" stroke="#000000" d="M 608 809 L 751.0244140625 809" stroke-miterlimit="10"/></g><g transform="translate(-102,10) scale(1,1)"><path fill="none" stroke="#000000" d="M 608 862 L 751.0244140625 862" stroke-miterlimit="10"/></g><g transform="translate(-102,10) scale(1,1)"><g><path fill="none" stroke="none"/><text fill="#000000" stroke="none" font-family="Arial" font-size="13px" font-style="normal" font-weight="bold" text-decoration="none" x="662.5322265625" y="803.5">Poker</text></g></g><g transform="translate(-102,10) scale(1,1)"><g><path fill="none" stroke="none"/><text fill="#000000" stroke="none" font-family="Arial" font-size="13px" font-style="normal" font-weight="normal" text-decoration="none" x="613" y="826.5">-dealer: Jugador</text></g></g><g transform="translate(-102,10) scale(1,1)"><g><path fill="none" stroke="none"/><text fill="#000000" stroke="none" font-family="Arial" font-size="13px" font-style="normal" font-weight="normal" text-decoration="none" x="613" y="841.5">-etapa: Etapa</text></g></g><g transform="translate(-102,10) scale(1,1)"><g><path fill="none" stroke="none"/><text fill="#000000" stroke="none" font-family="Arial" font-size="13px" font-style="normal" font-weight="normal" text-decoration="none" x="613" y="856.5">-allIn: Boolean</text></g></g><g transform="translate(-102,10) scale(1,1)"><g><path fill="none" stroke="none"/><text fill="#000000" stroke="none" font-family="Arial" font-size="13px" font-style="normal" font-weight="normal" text-decoration="none" x="613" y="879.5">+retirarse()</text></g></g><g transform="translate(-102,10) scale(1,1)"><g><path fill="none" stroke="none"/><text fill="#000000" stroke="none" font-family="Arial" font-size="13px" font-style="normal" font-weight="normal" text-decoration="none" x="613" y="894.5">+pasar()</text></g></g><g transform="translate(-102,10) scale(1,1)"><g><path fill="none" stroke="none"/><text fill="#000000" stroke="none" font-family="Arial" font-size="13px" font-style="normal" font-weight="normal" text-decoration="none" x="613" y="909.5">+igualar()</text></g></g><g transform="translate(-102,10) scale(1,1)"><g><path fill="none" stroke="none"/><text fill="#000000" stroke="none" font-family="Arial" font-size="13px" font-style="normal" font-weight="normal" text-decoration="none" x="613" y="924.5">+subir()</text></g></g><g transform="translate(-102,10) scale(1,1)"><rect fill="#C0C0C0" stroke="none" x="742" y="311" width="272" height="192" opacity="0.2"/></g><g transform="translate(-102,10) scale(1,1)"><rect fill="#ffffff" stroke="none" x="735" y="304" width="272" height="192"/></g><g transform="translate(-102,10) scale(1,1)"><path fill="none" stroke="#000000" d="M 735 304 L 1007 304 L 1007 496 L 735 496 L 735 304 Z Z" stroke-miterlimit="10"/></g><g transform="translate(-102,10) scale(1,1)"><path fill="none" stroke="#000000" d="M 735 329 L 1007 329" stroke-miterlimit="10"/></g><g transform="translate(-102,10) scale(1,1)"><path fill="none" stroke="#000000" d="M 735 442 L 1007 442" stroke-miterlimit="10"/></g><g transform="translate(-102,10) scale(1,1)"><g><path fill="none" stroke="none"/><text fill="#000000" stroke="none" font-family="Arial" font-size="13px" font-style="normal" font-weight="bold" text-decoration="none" x="853.2900390625" y="323.5">Juego</text></g></g><g transform="translate(-102,10) scale(1,1)"><g><path fill="none" stroke="none"/><text fill="#000000" stroke="none" font-family="Arial" font-size="13px" font-style="normal" font-weight="normal" text-decoration="none" x="740" y="346.5">#capacidad: Int = 1</text></g></g><g transform="translate(-102,10) scale(1,1)"><g><path fill="none" stroke="none"/><text fill="#000000" stroke="none" font-family="Arial" font-size="13px" font-style="normal" font-weight="normal" text-decoration="none" x="740" y="361.5">#capasidadMinimima: Int = 1</text></g></g><g transform="translate(-102,10) scale(1,1)"><g><path fill="none" stroke="none"/><text fill="#000000" stroke="none" font-family="Arial" font-size="13px" font-style="normal" font-weight="normal" text-decoration="none" x="740" y="376.5">#jugadores: Jugador[capasidad]</text></g></g><g transform="translate(-102,10) scale(1,1)"><g><path fill="none" stroke="none"/><text fill="#000000" stroke="none" font-family="Arial" font-size="13px" font-style="normal" font-weight="normal" text-decoration="none" x="740" y="391.5">#fechaPartida: Date</text></g></g><g transform="translate(-102,10) scale(1,1)"><g><path fill="none" stroke="none"/><text fill="#000000" stroke="none" font-family="Arial" font-size="13px" font-style="normal" font-weight="normal" text-decoration="none" x="740" y="406.5">#horaInicio: Date</text></g></g><g transform="translate(-102,10) scale(1,1)"><g><path fill="none" stroke="none"/><text fill="#000000" stroke="none" font-family="Arial" font-size="13px" font-style="normal" font-weight="normal" text-decoration="none" x="740" y="421.5">#horaFin: Date</text></g></g><g transform="translate(-102,10) scale(1,1)"><g><path fill="none" stroke="none"/><text fill="#000000" stroke="none" font-family="Arial" font-size="13px" font-style="normal" font-weight="normal" text-decoration="none" x="740" y="436.5">#turnoActivo: Jugador</text></g></g><g transform="translate(-102,10) scale(1,1)"><g><path fill="none" stroke="none"/><text fill="#000000" stroke="none" font-family="Arial" font-size="13px" font-style="normal" font-weight="normal" text-decoration="none" x="740" y="459.5">+iniciarJuego()</text></g></g><g transform="translate(-102,10) scale(1,1)"><g><path fill="none" stroke="none"/><text fill="#000000" stroke="none" font-family="Arial" font-size="13px" font-style="normal" font-weight="normal" text-decoration="none" x="740" y="474.5">+entrarSalaJuego()</text></g></g><g transform="translate(-102,10) scale(1,1)"><g><path fill="none" stroke="none"/><text fill="#000000" stroke="none" font-family="Arial" font-size="13px" font-style="normal" font-weight="normal" text-decoration="none" x="740" y="489.5">+salirSalaJuego()</text></g></g><g transform="translate(-102,10) scale(1,1)"><rect fill="#C0C0C0" stroke="none" x="791" y="551" width="176" height="160" opacity="0.2"/></g><g transform="translate(-102,10) scale(1,1)"><rect fill="#ffffff" stroke="none" x="784" y="544" width="176" height="160"/></g><g transform="translate(-102,10) scale(1,1)"><path fill="none" stroke="#000000" d="M 784 544 L 960 544 L 960 704 L 784 704 L 784 544 Z Z" stroke-miterlimit="10"/></g><g transform="translate(-102,10) scale(1,1)"><path fill="none" stroke="#000000" d="M 784 569 L 960 569" stroke-miterlimit="10"/></g><g transform="translate(-102,10) scale(1,1)"><path fill="none" stroke="#000000" d="M 784 637 L 960 637" stroke-miterlimit="10"/></g><g transform="translate(-102,10) scale(1,1)"><g><path fill="none" stroke="none"/><text fill="#000000" stroke="none" font-family="Arial" font-size="13px" font-style="italic" font-weight="bold" text-decoration="none" x="826.83642578125" y="563.5">JuegoDeCartas</text></g></g><g transform="translate(-102,10) scale(1,1)"><g><path fill="none" stroke="none"/><text fill="#000000" stroke="none" font-family="Arial" font-size="13px" font-style="normal" font-weight="normal" text-decoration="none" x="789" y="586.5">#mazo: Mazo</text></g></g><g transform="translate(-102,10) scale(1,1)"><g><path fill="none" stroke="none"/><text fill="#000000" stroke="none" font-family="Arial" font-size="13px" font-style="normal" font-weight="normal" text-decoration="none" x="789" y="601.5">#motoDescartes: Carta</text></g></g><g transform="translate(-102,10) scale(1,1)"><g><path fill="none" stroke="none"/><text fill="#000000" stroke="none" font-family="Arial" font-size="13px" font-style="normal" font-weight="normal" text-decoration="none" x="789" y="616.5">#baseMesa</text></g></g><g transform="translate(-102,10) scale(1,1)"><g><path fill="none" stroke="none"/><text fill="#000000" stroke="none" font-family="Arial" font-size="13px" font-style="normal" font-weight="normal" text-decoration="none" x="789" y="631.5">#apuestas: Long[7]</text></g></g><g transform="translate(-102,10) scale(1,1)"><g><path fill="none" stroke="none"/><text fill="#000000" stroke="none" font-family="Arial" font-size="13px" font-style="italic" font-weight="normal" text-decoration="none" x="789" y="654.5">+repartirCartas()</text></g></g><g transform="translate(-102,10) scale(1,1)"><g><path fill="none" stroke="none"/><text fill="#000000" stroke="none" font-family="Arial" font-size="13px" font-style="italic" font-weight="normal" text-decoration="none" x="789" y="669.5">+pagarApuesta()</text></g></g><g transform="translate(-102,10) scale(1,1)"><g><path fill="none" stroke="none"/><text fill="#000000" stroke="none" font-family="Arial" font-size="13px" font-style="normal" font-weight="normal" text-decoration="none" x="789" y="684.5">+apostar()</text></g></g><g transform="translate(-102,10) scale(1,1)"><path fill="none" stroke="#000000" d="M 1048 784 L 1048 752 L 872 752 L 872 704" stroke-miterlimit="10"/></g><g transform="translate(-102,10) scale(1,1)"><path fill="#FFFFFF" stroke="none" d="M 880.419035512032 724.3253497152483 L 872 704 L 863.580964487968 724.3253497152483"/></g><g transform="translate(-102,10) scale(1,1)"><path fill="none" stroke="#000000" d="M 880.419035512032 724.3253497152483 L 872 704 L 863.580964487968 724.3253497152483 L 880.419035512032 724.3253497152483" stroke-miterlimit="10"/></g><g transform="translate(-102,10) scale(1,1)"><path fill="none" stroke="#000000" d="M 680 784 L 680 752 L 872 752 L 872 704" stroke-miterlimit="10"/></g><g transform="translate(-102,10) scale(1,1)"><path fill="#FFFFFF" stroke="none" d="M 880.419035512032 724.3253497152483 L 872 704 L 863.580964487968 724.3253497152483"/></g><g transform="translate(-102,10) scale(1,1)"><path fill="none" stroke="#000000" d="M 880.419035512032 724.3253497152483 L 872 704 L 863.580964487968 724.3253497152483 L 880.419035512032 724.3253497152483" stroke-miterlimit="10"/></g><g transform="translate(-102,10) scale(1,1)"><path fill="none" stroke="#000000" d="M 868 544 L 868 496" stroke-miterlimit="10"/></g><g transform="translate(-102,10) scale(1,1)"><path fill="#FFFFFF" stroke="none" d="M 876.419035512032 516.3253497152483 L 868 496 L 859.580964487968 516.3253497152483"/></g><g transform="translate(-102,10) scale(1,1)"><path fill="none" stroke="#000000" d="M 876.419035512032 516.3253497152483 L 868 496 L 859.580964487968 516.3253497152483 L 876.419035512032 516.3253497152483" stroke-miterlimit="10"/></g><g transform="translate(-102,10) scale(1,1)"><path fill="none" stroke="#000000" d="M 667 409 L 735 409" stroke-miterlimit="10"/></g><g transform="translate(-102,10) scale(1,1)"><path fill="none" stroke="#000000" d="M 724.8373251423759 413.209517756016 L 735 409 L 724.8373251423758 404.790482243984" stroke-miterlimit="10"/></g><g transform="translate(-102,10) scale(1,1)"><path fill="none" stroke="#000000" d="M 684 624 L 783 624" stroke-miterlimit="10"/></g><g transform="translate(-102,10) scale(1,1)"><path fill="none" stroke="#000000" d="M 772.8373251423759 628.209517756016 L 783 624 L 772.8373251423758 619.790482243984" stroke-miterlimit="10"/></g><g transform="translate(-102,10) scale(1,1)"><rect fill="#C0C0C0" stroke="none" x="327" y="679" width="128" height="96" opacity="0.2"/></g><g transform="translate(-102,10) scale(1,1)"><rect fill="#ffffff" stroke="none" x="320" y="672" width="128" height="96"/></g><g transform="translate(-102,10) scale(1,1)"><path fill="none" stroke="#000000" d="M 320 672 L 448 672 L 448 768 L 320 768 L 320 672 Z Z" stroke-miterlimit="10"/></g><g transform="translate(-102,10) scale(1,1)"><path fill="none" stroke="#000000" d="M 320 697 L 448 697" stroke-miterlimit="10"/></g><g transform="translate(-102,10) scale(1,1)"><path fill="none" stroke="#000000" d="M 320 735 L 448 735" stroke-miterlimit="10"/></g><g transform="translate(-102,10) scale(1,1)"><g><path fill="none" stroke="none"/><text fill="#000000" stroke="none" font-family="Arial" font-size="13px" font-style="normal" font-weight="bold" text-decoration="none" x="368.10546875" y="691.5">Carta</text></g></g><g transform="translate(-102,10) scale(1,1)"><g><path fill="none" stroke="none"/><text fill="#000000" stroke="none" font-family="Arial" font-size="13px" font-style="normal" font-weight="normal" text-decoration="none" x="325" y="714.5">-pinta: Pinta</text></g></g><g transform="translate(-102,10) scale(1,1)"><g><path fill="none" stroke="none"/><text fill="#000000" stroke="none" font-family="Arial" font-size="13px" font-style="normal" font-weight="normal" text-decoration="none" x="325" y="729.5">-numeroLetra: Char</text></g></g><g transform="translate(-102,10) scale(1,1)"><g><path fill="none" stroke="none"/><text fill="#000000" stroke="none" font-family="Arial" font-size="13px" font-style="normal" font-weight="normal" text-decoration="none" x="325" y="752.5">+obtenerCarta()</text></g></g><g transform="translate(-102,10) scale(1,1)"><rect fill="#C0C0C0" stroke="none" x="143" y="567" width="136" height="128" opacity="0.2"/></g><g transform="translate(-102,10) scale(1,1)"><rect fill="#ffffff" stroke="none" x="136" y="560" width="136" height="128"/></g><g transform="translate(-102,10) scale(1,1)"><path fill="none" stroke="#000000" d="M 136 560 L 272 560 L 272 688 L 136 688 L 136 560 Z Z" stroke-miterlimit="10"/></g><g transform="translate(-102,10) scale(1,1)"><path fill="none" stroke="#000000" d="M 136 598 L 272 598" stroke-miterlimit="10"/></g><g transform="translate(-102,10) scale(1,1)"><g><path fill="none" stroke="none"/><text fill="#000000" stroke="none" font-family="Arial" font-size="13px" font-style="normal" font-weight="normal" text-decoration="none" x="160.635986328125" y="577.5">«enumeration»</text></g></g><g transform="translate(-102,10) scale(1,1)"><g><path fill="none" stroke="none"/><text fill="#000000" stroke="none" font-family="Arial" font-size="13px" font-style="normal" font-weight="bold" text-decoration="none" x="189.1845703125" y="592.5">Pinta</text></g></g><g transform="translate(-102,10) scale(1,1)"><g><path fill="none" stroke="none"/><text fill="#000000" stroke="none" font-family="Arial" font-size="13px" font-style="normal" font-weight="normal" text-decoration="none" x="141" y="615.5">CORAZONES</text></g></g><g transform="translate(-102,10) scale(1,1)"><g><path fill="none" stroke="none"/><text fill="#000000" stroke="none" font-family="Arial" font-size="13px" font-style="normal" font-weight="normal" text-decoration="none" x="141" y="630.5">PICAS</text></g></g><g transform="translate(-102,10) scale(1,1)"><g><path fill="none" stroke="none"/><text fill="#000000" stroke="none" font-family="Arial" font-size="13px" font-style="normal" font-weight="normal" text-decoration="none" x="141" y="645.5">DIAMANTES</text></g></g><g transform="translate(-102,10) scale(1,1)"><g><path fill="none" stroke="none"/><text fill="#000000" stroke="none" font-family="Arial" font-size="13px" font-style="normal" font-weight="normal" text-decoration="none" x="141" y="660.5">TREBOL</text></g></g><g transform="translate(-102,10) scale(1,1)"><path fill="none" stroke="#000000" d="M 448 712 L 472 712 L 472 624 L 512 624" stroke-miterlimit="10"/></g><g transform="translate(-102,10) scale(1,1)"><path fill="none" stroke="#000000" d="M 501.83732514237585 628.209517756016 L 512 624 L 501.83732514237585 619.790482243984" stroke-miterlimit="10"/></g><g transform="translate(-102,10) scale(1,1)"><path fill="none" stroke="#000000" d="M 408 408 L 112 408 L 112 880 L 608 880" stroke-miterlimit="10"/></g><g transform="translate(-102,10) scale(1,1)"><path fill="none" stroke="#000000" d="M 597.8373251423759 884.209517756016 L 608 880 L 597.8373251423758 875.790482243984" stroke-miterlimit="10"/></g><g transform="translate(-102,10) scale(1,1)"><rect fill="#C0C0C0" stroke="none" x="823" y="823" width="95.72802734375" height="128" opacity="0.2"/></g><g transform="translate(-102,10) scale(1,1)"><rect fill="#ffffff" stroke="none" x="816" y="816" width="95.72802734375" height="128"/></g><g transform="translate(-102,10) scale(1,1)"><path fill="none" stroke="#000000" d="M 816 816 L 911.72802734375 816 L 911.72802734375 944 L 816 944 L 816 816 Z Z" stroke-miterlimit="10"/></g><g transform="translate(-102,10) scale(1,1)"><path fill="none" stroke="#000000" d="M 816 854 L 911.72802734375 854" stroke-miterlimit="10"/></g><g transform="translate(-102,10) scale(1,1)"><g><path fill="none" stroke="none"/><text fill="#000000" stroke="none" font-family="Arial" font-size="13px" font-style="normal" font-weight="normal" text-decoration="none" x="820.5" y="833.5">«enumeration»</text></g></g><g transform="translate(-102,10) scale(1,1)"><g><path fill="none" stroke="none"/><text fill="#000000" stroke="none" font-family="Arial" font-size="13px" font-style="normal" font-weight="bold" text-decoration="none" x="846.877685546875" y="848.5">Etapa</text></g></g><g transform="translate(-102,10) scale(1,1)"><g><path fill="none" stroke="none"/><text fill="#000000" stroke="none" font-family="Arial" font-size="13px" font-style="normal" font-weight="normal" text-decoration="none" x="821" y="871.5">PRE_FLOP</text></g></g><g transform="translate(-102,10) scale(1,1)"><g><path fill="none" stroke="none"/><text fill="#000000" stroke="none" font-family="Arial" font-size="13px" font-style="normal" font-weight="normal" text-decoration="none" x="821" y="886.5">FLOP</text></g></g><g transform="translate(-102,10) scale(1,1)"><g><path fill="none" stroke="none"/><text fill="#000000" stroke="none" font-family="Arial" font-size="13px" font-style="normal" font-weight="normal" text-decoration="none" x="821" y="901.5">TURN</text></g></g><g transform="translate(-102,10) scale(1,1)"><g><path fill="none" stroke="none"/><text fill="#000000" stroke="none" font-family="Arial" font-size="13px" font-style="normal" font-weight="normal" text-decoration="none" x="821" y="916.5">RIVER</text></g></g><g transform="translate(-102,10) scale(1,1)"><g><path fill="none" stroke="none"/><text fill="#000000" stroke="none" font-family="Arial" font-size="13px" font-style="normal" font-weight="normal" text-decoration="none" x="821" y="931.5">SHOWDOWN</text></g></g><g transform="translate(-102,10) scale(1,1)"><path fill="none" stroke="#000000" d="M 272 624 L 304 624 L 304 720 L 320 720" stroke-miterlimit="10"/></g><g transform="translate(-102,10) scale(1,1)"><path fill="none" stroke="#000000" d="M 309.83732514237585 724.209517756016 L 320 720 L 309.83732514237585 715.790482243984" stroke-miterlimit="10"/></g><g transform="translate(-102,10) scale(1,1)"><path fill="none" stroke="#000000" d="M 816 878 L 751 878" stroke-miterlimit="10"/></g><g transform="translate(-102,10) scale(1,1)"><path fill="none" stroke="#000000" d="M 761.1626748576241 873.790482243984 L 751 878 L 761.1626748576241 882.209517756016" stroke-miterlimit="10"/></g><g transform="translate(-102,10) scale(1,1)"><rect fill="#C0C0C0" stroke="none" x="1247" y="207" width="70.40000000000009" height="15" opacity="0.2"/></g><g transform="translate(-102,10) scale(1,1)"><rect fill="#C0C0C0" stroke="none" x="1247" y="221" width="176" height="66" opacity="0.2"/></g><g transform="translate(-102,10) scale(1,1)"><rect fill="#ffffff" stroke="none" x="1240" y="215" width="176" height="65"/></g><g transform="translate(-102,10) scale(1,1)"><path fill="none" stroke="#000000" d="M 1240 215 L 1416 215 L 1416 280 L 1240 280 L 1240 215 Z Z" stroke-miterlimit="10"/></g><g transform="translate(-102,10) scale(1,1)"><rect fill="#ffffff" stroke="none" x="1240" y="200" width="70.40000000000009" height="15"/></g><g transform="translate(-102,10) scale(1,1)"><path fill="none" stroke="#000000" d="M 1240 200 L 1310.4 200 L 1310.4 215 L 1240 215 L 1240 200 Z Z" stroke-miterlimit="10"/></g><g transform="translate(-102,10) scale(1,1)"><rect fill="#ffffff" stroke="none" x="1240" y="214" width="176" height="66"/></g><g transform="translate(-102,10) scale(1,1)"><path fill="none" stroke="#000000" d="M 1240 214 L 1416 214 L 1416 280 L 1240 280 L 1240 214 Z Z" stroke-miterlimit="10"/></g><g transform="translate(-102,10) scale(1,1)"><g><path fill="none" stroke="none"/><text fill="#000000" stroke="none" font-family="Arial" font-size="13px" font-style="normal" font-weight="bold" text-decoration="none" x="1311.740478515625" y="234.5">poker</text></g></g><g transform="translate(-102,10) scale(1,1)"><g><path fill="none" stroke="none"/><text fill="#000000" stroke="none" font-family="Arial" font-size="13px" font-style="normal" font-weight="normal" text-decoration="none" x="1265.50732421875" y="249.5">(from juegoDeCartas)</text></g></g><g transform="translate(-102,10) scale(1,1)"><rect fill="#C0C0C0" stroke="none" x="1247" y="303" width="70.40000000000009" height="15" opacity="0.2"/></g><g transform="translate(-102,10) scale(1,1)"><rect fill="#C0C0C0" stroke="none" x="1247" y="317" width="176" height="66" opacity="0.2"/></g><g transform="translate(-102,10) scale(1,1)"><rect fill="#ffffff" stroke="none" x="1240" y="311" width="176" height="65"/></g><g transform="translate(-102,10) scale(1,1)"><path fill="none" stroke="#000000" d="M 1240 311 L 1416 311 L 1416 376 L 1240 376 L 1240 311 Z Z" stroke-miterlimit="10"/></g><g transform="translate(-102,10) scale(1,1)"><rect fill="#ffffff" stroke="none" x="1240" y="296" width="70.40000000000009" height="15"/></g><g transform="translate(-102,10) scale(1,1)"><path fill="none" stroke="#000000" d="M 1240 296 L 1310.4 296 L 1310.4 311 L 1240 311 L 1240 296 Z Z" stroke-miterlimit="10"/></g><g transform="translate(-102,10) scale(1,1)"><rect fill="#ffffff" stroke="none" x="1240" y="310" width="176" height="66"/></g><g transform="translate(-102,10) scale(1,1)"><path fill="none" stroke="#000000" d="M 1240 310 L 1416 310 L 1416 376 L 1240 376 L 1240 310 Z Z" stroke-miterlimit="10"/></g><g transform="translate(-102,10) scale(1,1)"><g><path fill="none" stroke="none"/><text fill="#000000" stroke="none" font-family="Arial" font-size="13px" font-style="normal" font-weight="bold" text-decoration="none" x="1312.10546875" y="330.5">mazo</text></g></g><g transform="translate(-102,10) scale(1,1)"><g><path fill="none" stroke="none"/><text fill="#000000" stroke="none" font-family="Arial" font-size="13px" font-style="normal" font-weight="normal" text-decoration="none" x="1265.50732421875" y="345.5">(from juegoDeCartas)</text></g></g><g transform="translate(-102,10) scale(1,1)"><rect fill="#C0C0C0" stroke="none" x="1247" y="407" width="70.40000000000009" height="15" opacity="0.2"/></g><g transform="translate(-102,10) scale(1,1)"><rect fill="#C0C0C0" stroke="none" x="1247" y="421" width="176" height="66" opacity="0.2"/></g><g transform="translate(-102,10) scale(1,1)"><rect fill="#ffffff" stroke="none" x="1240" y="415" width="176" height="65"/></g><g transform="translate(-102,10) scale(1,1)"><path fill="none" stroke="#000000" d="M 1240 415 L 1416 415 L 1416 480 L 1240 480 L 1240 415 Z Z" stroke-miterlimit="10"/></g><g transform="translate(-102,10) scale(1,1)"><rect fill="#ffffff" stroke="none" x="1240" y="400" width="70.40000000000009" height="15"/></g><g transform="translate(-102,10) scale(1,1)"><path fill="none" stroke="#000000" d="M 1240 400 L 1310.4 400 L 1310.4 415 L 1240 415 L 1240 400 Z Z" stroke-miterlimit="10"/></g><g transform="translate(-102,10) scale(1,1)"><rect fill="#ffffff" stroke="none" x="1240" y="414" width="176" height="66"/></g><g transform="translate(-102,10) scale(1,1)"><path fill="none" stroke="#000000" d="M 1240 414 L 1416 414 L 1416 480 L 1240 480 L 1240 414 Z Z" stroke-miterlimit="10"/></g><g transform="translate(-102,10) scale(1,1)"><g><path fill="none" stroke="none"/><text fill="#000000" stroke="none" font-family="Arial" font-size="13px" font-style="normal" font-weight="bold" text-decoration="none" x="1313.549560546875" y="434.5">carta</text></g></g><g transform="translate(-102,10) scale(1,1)"><g><path fill="none" stroke="none"/><text fill="#000000" stroke="none" font-family="Arial" font-size="13px" font-style="normal" font-weight="normal" text-decoration="none" x="1265.50732421875" y="449.5">(from juegoDeCartas)</text></g></g><g transform="translate(-102,10) scale(1,1)"><rect fill="#C0C0C0" stroke="none" x="1247" y="111" width="70.40000000000009" height="15" opacity="0.2"/></g><g transform="translate(-102,10) scale(1,1)"><rect fill="#C0C0C0" stroke="none" x="1247" y="125" width="176" height="58" opacity="0.2"/></g><g transform="translate(-102,10) scale(1,1)"><rect fill="#ffffff" stroke="none" x="1240" y="119" width="176" height="57"/></g><g transform="translate(-102,10) scale(1,1)"><path fill="none" stroke="#000000" d="M 1240 119 L 1416 119 L 1416 176 L 1240 176 L 1240 119 Z Z" stroke-miterlimit="10"/></g><g transform="translate(-102,10) scale(1,1)"><rect fill="#ffffff" stroke="none" x="1240" y="104" width="70.40000000000009" height="15"/></g><g transform="translate(-102,10) scale(1,1)"><path fill="none" stroke="#000000" d="M 1240 104 L 1310.4 104 L 1310.4 119 L 1240 119 L 1240 104 Z Z" stroke-miterlimit="10"/></g><g transform="translate(-102,10) scale(1,1)"><rect fill="#ffffff" stroke="none" x="1240" y="118" width="176" height="58"/></g><g transform="translate(-102,10) scale(1,1)"><path fill="none" stroke="#000000" d="M 1240 118 L 1416 118 L 1416 176 L 1240 176 L 1240 118 Z Z" stroke-miterlimit="10"/></g><g transform="translate(-102,10) scale(1,1)"><path fill="none" stroke="#000000" d="M 1302.4 107 L 1302.4 111" stroke-miterlimit="10"/></g><g transform="translate(-102,10) scale(1,1)"><path fill="none" stroke="#000000" d="M 1299.4 115 L 1299.4 111 L 1305.4 111" stroke-miterlimit="10"/></g><g transform="translate(-102,10) scale(1,1)"><path fill="none" stroke="#000000" d="M 1305.4 115 L 1305.4 111 L 1299.4 111" stroke-miterlimit="10"/></g><g transform="translate(-102,10) scale(1,1)"><g><path fill="none" stroke="none"/><text fill="#000000" stroke="none" font-family="Arial" font-size="13px" font-style="normal" font-weight="bold" text-decoration="none" x="1284.642333984375" y="138.5">juegoDeCartas</text></g></g><g transform="translate(-102,10) scale(1,1)"><g><path fill="none" stroke="none"/><text fill="#000000" stroke="none" font-family="Arial" font-size="13px" font-style="normal" font-weight="normal" text-decoration="none" x="1292.9609375" y="153.5">(from juego)</text></g></g><g transform="translate(-102,10) scale(1,1)"><rect fill="#C0C0C0" stroke="none" x="471" y="127" width="144" height="128" opacity="0.2"/></g><g transform="translate(-102,10) scale(1,1)"><rect fill="#ffffff" stroke="none" x="464" y="120" width="144" height="128"/></g><g transform="translate(-102,10) scale(1,1)"><path fill="none" stroke="#000000" d="M 464 120 L 608 120 L 608 248 L 464 248 L 464 120 Z Z" stroke-miterlimit="10"/></g><g transform="translate(-102,10) scale(1,1)"><path fill="none" stroke="#000000" d="M 464 145 L 608 145" stroke-miterlimit="10"/></g><g transform="translate(-102,10) scale(1,1)"><path fill="none" stroke="#000000" d="M 464 155 L 608 155" stroke-miterlimit="10"/></g><g transform="translate(-102,10) scale(1,1)"><g><path fill="none" stroke="none"/><text fill="#000000" stroke="none" font-family="Arial" font-size="13px" font-style="normal" font-weight="bold" text-decoration="none" x="490.484130859375" y="139.5">UsuarioServicio</text></g></g><g transform="translate(-102,10) scale(1,1)"><g><path fill="none" stroke="none"/><text fill="#000000" stroke="none" font-family="Arial" font-size="13px" font-style="normal" font-weight="normal" text-decoration="none" x="469" y="172.5">+agregarJugador()</text></g></g><g transform="translate(-102,10) scale(1,1)"><g><path fill="none" stroke="none"/><text fill="#000000" stroke="none" font-family="Arial" font-size="13px" font-style="normal" font-weight="normal" text-decoration="none" x="469" y="187.5">+removerJugador()</text></g></g><g transform="translate(-102,10) scale(1,1)"><g><path fill="none" stroke="none"/><text fill="#000000" stroke="none" font-family="Arial" font-size="13px" font-style="normal" font-weight="normal" text-decoration="none" x="469" y="202.5">+obtenerJugador()</text></g></g><g transform="translate(-102,10) scale(1,1)"><g><path fill="none" stroke="none"/><text fill="#000000" stroke="none" font-family="Arial" font-size="13px" font-style="normal" font-weight="normal" text-decoration="none" x="469" y="217.5">+actualizarJugador()</text></g></g><g transform="translate(-102,10) scale(1,1)"><path fill="none" stroke="#000000" d="M 536 249 L 537 319" stroke-miterlimit="10" stroke-dasharray="3"/></g><g transform="translate(-102,10) scale(1,1)"><path fill="none" stroke="#000000" d="M 532.6457454636101 308.8984918238746 L 537 319 L 541.063922021856 308.7782321587568" stroke-miterlimit="10"/></g><g transform="translate(-102,10) scale(1,1)"><rect fill="#C0C0C0" stroke="none" x="775" y="87" width="153.142578125" height="145" opacity="0.2"/></g><g transform="translate(-102,10) scale(1,1)"><rect fill="#ffffff" stroke="none" x="768" y="80" width="153.142578125" height="145"/></g><g transform="translate(-102,10) scale(1,1)"><path fill="none" stroke="#000000" d="M 768 80 L 921.142578125 80 L 921.142578125 225 L 768 225 L 768 80 Z Z" stroke-miterlimit="10"/></g><g transform="translate(-102,10) scale(1,1)"><path fill="none" stroke="#000000" d="M 768 105 L 921.142578125 105" stroke-miterlimit="10"/></g><g transform="translate(-102,10) scale(1,1)"><path fill="none" stroke="#000000" d="M 768 128 L 921.142578125 128" stroke-miterlimit="10"/></g><g transform="translate(-102,10) scale(1,1)"><g><path fill="none" stroke="none"/><text fill="#000000" stroke="none" font-family="Arial" font-size="13px" font-style="normal" font-weight="bold" text-decoration="none" x="799.77587890625" y="99.5">CasinoCotroller</text></g></g><g transform="translate(-102,10) scale(1,1)"><g><path fill="none" stroke="none"/><text fill="#000000" stroke="none" font-family="Arial" font-size="13px" font-style="normal" font-weight="normal" text-decoration="none" x="773" y="122.5">+registro</text></g></g><g transform="translate(-102,10) scale(1,1)"><g><path fill="none" stroke="none"/><text fill="#000000" stroke="none" font-family="Arial" font-size="13px" font-style="normal" font-weight="normal" text-decoration="none" x="773" y="145.5">+inciarCasino()</text></g></g><g transform="translate(-102,10) scale(1,1)"><g><path fill="none" stroke="none"/><text fill="#000000" stroke="none" font-family="Arial" font-size="13px" font-style="normal" font-weight="normal" text-decoration="none" x="773" y="160.5">+iniciarJuegoBlackJack()</text></g></g><g transform="translate(-102,10) scale(1,1)"><g><path fill="none" stroke="none"/><text fill="#000000" stroke="none" font-family="Arial" font-size="13px" font-style="normal" font-weight="normal" text-decoration="none" x="773" y="175.5">+iniciarJuegoPoker()</text></g></g><g transform="translate(-102,10) scale(1,1)"><g><path fill="none" stroke="none"/><text fill="#000000" stroke="none" font-family="Arial" font-size="13px" font-style="normal" font-weight="normal" text-decoration="none" x="773" y="190.5">+guardarDatos()</text></g></g><g transform="translate(-102,10) scale(1,1)"><g><path fill="none" stroke="none"/><text fill="#000000" stroke="none" font-family="Arial" font-size="13px" font-style="normal" font-weight="normal" text-decoration="none" x="773" y="205.5">+cargarDatos()</text></g></g><g transform="translate(-102,10) scale(1,1)"><g><path fill="none" stroke="none"/><text fill="#000000" stroke="none" font-family="Arial" font-size="13px" font-style="normal" font-weight="normal" text-decoration="none" x="773" y="220.5">+salir()</text></g></g><g transform="translate(-102,10) scale(1,1)"><rect fill="#C0C0C0" stroke="none" x="1023" y="7" width="73.59999999999991" height="15" opacity="0.2"/></g><g transform="translate(-102,10) scale(1,1)"><rect fill="#C0C0C0" stroke="none" x="1023" y="21" width="184" height="66" opacity="0.2"/></g><g transform="translate(-102,10) scale(1,1)"><rect fill="#ffffff" stroke="none" x="1016" y="15" width="184" height="65"/></g><g transform="translate(-102,10) scale(1,1)"><path fill="none" stroke="#000000" d="M 1016 15 L 1200 15 L 1200 80 L 1016 80 L 1016 15 Z Z" stroke-miterlimit="10"/></g><g transform="translate(-102,10) scale(1,1)"><rect fill="#ffffff" stroke="none" x="1016" y="0" width="73.59999999999991" height="15"/></g><g transform="translate(-102,10) scale(1,1)"><path fill="none" stroke="#000000" d="M 1016 0 L 1089.6 0 L 1089.6 15 L 1016 15 L 1016 0 Z Z" stroke-miterlimit="10"/></g><g transform="translate(-102,10) scale(1,1)"><rect fill="#ffffff" stroke="none" x="1016" y="14" width="184" height="66"/></g><g transform="translate(-102,10) scale(1,1)"><path fill="none" stroke="#000000" d="M 1016 14 L 1200 14 L 1200 80 L 1016 80 L 1016 14 Z Z" stroke-miterlimit="10"/></g><g transform="translate(-102,10) scale(1,1)"><path fill="none" stroke="#000000" d="M 1081.6 3 L 1081.6 7" stroke-miterlimit="10"/></g><g transform="translate(-102,10) scale(1,1)"><path fill="none" stroke="#000000" d="M 1078.6 11 L 1078.6 7 L 1084.6 7" stroke-miterlimit="10"/></g><g transform="translate(-102,10) scale(1,1)"><path fill="none" stroke="#000000" d="M 1084.6 11 L 1084.6 7 L 1078.6 7" stroke-miterlimit="10"/></g><g transform="translate(-102,10) scale(1,1)"><g><path fill="none" stroke="none"/><text fill="#000000" stroke="none" font-family="Arial" font-size="13px" font-style="normal" font-weight="bold" text-decoration="none" x="1086.31640625" y="34.5">jugador</text></g></g><g transform="translate(-102,10) scale(1,1)"><g><path fill="none" stroke="none"/><text fill="#000000" stroke="none" font-family="Arial" font-size="13px" font-style="normal" font-weight="normal" text-decoration="none" x="1071.161376953125" y="49.5">(from Model)</text></g></g><g transform="translate(-102,10) scale(1,1)"><rect fill="#C0C0C0" stroke="none" x="1247" y="7" width="73.59999999999991" height="15" opacity="0.2"/></g><g transform="translate(-102,10) scale(1,1)"><rect fill="#C0C0C0" stroke="none" x="1247" y="21" width="184" height="66" opacity="0.2"/></g><g transform="translate(-102,10) scale(1,1)"><rect fill="#ffffff" stroke="none" x="1240" y="15" width="184" height="65"/></g><g transform="translate(-102,10) scale(1,1)"><path fill="none" stroke="#000000" d="M 1240 15 L 1424 15 L 1424 80 L 1240 80 L 1240 15 Z Z" stroke-miterlimit="10"/></g><g transform="translate(-102,10) scale(1,1)"><rect fill="#ffffff" stroke="none" x="1240" y="0" width="73.59999999999991" height="15"/></g><g transform="translate(-102,10) scale(1,1)"><path fill="none" stroke="#000000" d="M 1240 0 L 1313.6 0 L 1313.6 15 L 1240 15 L 1240 0 Z Z" stroke-miterlimit="10"/></g><g transform="translate(-102,10) scale(1,1)"><rect fill="#ffffff" stroke="none" x="1240" y="14" width="184" height="66"/></g><g transform="translate(-102,10) scale(1,1)"><path fill="none" stroke="#000000" d="M 1240 14 L 1424 14 L 1424 80 L 1240 80 L 1240 14 Z Z" stroke-miterlimit="10"/></g><g transform="translate(-102,10) scale(1,1)"><path fill="none" stroke="#000000" d="M 1305.6 3 L 1305.6 7" stroke-miterlimit="10"/></g><g transform="translate(-102,10) scale(1,1)"><path fill="none" stroke="#000000" d="M 1302.6 11 L 1302.6 7 L 1308.6 7" stroke-miterlimit="10"/></g><g transform="translate(-102,10) scale(1,1)"><path fill="none" stroke="#000000" d="M 1308.6 11 L 1308.6 7 L 1302.6 7" stroke-miterlimit="10"/></g><g transform="translate(-102,10) scale(1,1)"><g><path fill="none" stroke="none"/><text fill="#000000" stroke="none" font-family="Arial" font-size="13px" font-style="normal" font-weight="bold" text-decoration="none" x="1316.095947265625" y="34.5">juego</text></g></g><g transform="translate(-102,10) scale(1,1)"><g><path fill="none" stroke="none"/><text fill="#000000" stroke="none" font-family="Arial" font-size="13px" font-style="normal" font-weight="normal" text-decoration="none" x="1295.161376953125" y="49.5">(from Model)</text></g></g><g transform="translate(-102,10) scale(1,1)"><path fill="none" stroke="#000000" d="M 448 712 L 736 712 L 736 624 L 784 624" stroke-miterlimit="10"/></g><g transform="translate(-102,10) scale(1,1)"><path fill="none" stroke="#000000" d="M 773.8373251423759 628.209517756016 L 784 624 L 773.8373251423758 619.790482243984" stroke-miterlimit="10"/></g></g></svg>